<svg version="1.1" xmlns="http://www.w3.org/2000/svg" viewBox="0 0 1037.4000091552734 410.60003662109375" width="3112.2000274658203" height="1231.8001098632812">
  <!-- svg-source:excalidraw -->
  
  <defs>
    <style>
      @font-face {
        font-family: "Virgil";
        src: url("https://excalidraw.com/Virgil.woff2");
      }
      @font-face {
        font-family: "Cascadia";
        src: url("https://excalidraw.com/Cascadia.woff2");
      }
    </style>
  </defs>
  <rect x="0" y="0" width="1037.4000091552734" height="410.60003662109375" fill="#ffffff"></rect><g stroke-opacity="0.3" fill-opacity="0.3" stroke-linecap="round" transform="translate(16.400054931640625 10) rotate(0 154.40000915527344 37.20002746582031)"><path d="M0 0 C0 0, 0 0, 0 0 M0 0 C0 0, 0 0, 0 0 M0.11 6.88 C0.88 4.99, 1.33 4.17, 4.41 0.61 M-0.52 6.02 C0.92 5.17, 2.53 3.59, 5.14 0.46 M-0.83 11.53 C2.98 7.45, 7.15 3.14, 9.5 -1.55 M0.69 12.11 C4.64 6.71, 7.59 3.29, 10.48 -0.54 M-1.98 20 C4.75 15.82, 5.52 13.07, 16.73 -0.29 M-0.99 18.31 C5.01 11.87, 10.91 6.66, 15.9 -0.31 M1.81 25.16 C6.24 16.11, 15.51 8.08, 22.96 -0.58 M1.22 23.88 C4.31 19.64, 7.83 14, 20.78 0.18 M0.77 30.68 C8.88 23.37, 15.18 14.89, 24.52 -0.31 M-0.94 31.43 C6.63 23.29, 12.53 16.79, 26.59 0.6 M0.7 37.07 C9.19 25.92, 20.63 14.18, 31.15 -0.2 M-0.38 37.12 C5.8 30, 12.91 22.78, 31.39 0.12 M0.89 41.66 C6.95 33.04, 13.95 24.96, 36.57 -0.22 M0.46 42.97 C10.68 31.94, 18.55 19.86, 37.57 -0.67 M0.29 50.74 C16.91 29.56, 29.28 15.56, 43.86 0.19 M0.6 49.2 C11.6 34, 24.94 20.22, 41.95 0.33 M2.19 56.16 C18.72 34.18, 32.95 15.25, 48.34 2.05 M0.01 55 C18.51 34.68, 34.12 15.06, 47.56 0.76 M1.14 59.23 C20.02 40.37, 38.8 19.1, 54.95 -1.28 M-0.65 60.63 C14.21 44.17, 30.19 26.47, 53.75 -0.1 M-0.37 67.33 C23.23 40.63, 45.46 14.19, 57.1 -0.26 M-0.54 68.22 C15.41 50.48, 28.6 33.5, 57.9 0.69 M-1.72 74.03 C15.5 52.99, 34.04 35.49, 62.09 -1.27 M0.33 72.08 C15.55 55.01, 31.46 34.98, 63.64 -0.17 M0.59 76.22 C27.81 47.71, 52.12 19.88, 69.95 1.26 M2.73 75.99 C19.25 56.86, 36.57 38.21, 68.5 -0.18 M7.76 77.51 C27.89 54.11, 43.02 34.31, 74.8 0.74 M7.8 76.82 C20.67 60, 34.06 45.64, 74.11 -0.98 M12.89 76.34 C36.23 51.23, 57.06 23.11, 79.77 -1.75 M14.02 76.8 C30.04 55.72, 48.31 35.83, 79.87 -0.25 M16.3 76.08 C35.22 54.34, 54.5 35.47, 86.36 -1.54 M17.46 75.86 C32.07 59.43, 47.11 43.41, 85.19 0.29 M23.71 76.68 C36.33 59.49, 51.19 44.93, 89.29 1.5 M24.63 75.39 C36.17 61.85, 49.98 46.37, 89.12 1 M29.07 78.55 C53.96 49.45, 75.05 23.27, 93.91 -1.2 M28.25 76.36 C43.34 58.47, 59.92 40.19, 96.55 0.34 M35.94 74.4 C56.77 47.71, 79.5 23.95, 99.03 1.01 M35.34 75.35 C55.49 51.07, 78.11 26.36, 99.94 0.98 M40.36 77.17 C62.15 51.76, 85.81 24.09, 106.36 -2.17 M39 76.62 C61.56 51.8, 83.59 26.33, 105.44 -0.2 M44.24 75.84 C57.92 60.95, 74.39 42.29, 111.32 1.94 M44.52 76.18 C67.13 49.96, 89.1 24.57, 110.63 0.02 M50.24 75.37 C64.88 58.28, 79.48 42.91, 115.81 1.58 M49.12 75.84 C65.79 58.08, 83.27 37.19, 116.03 -0.05 M55.11 76.52 C74.53 50.98, 94.83 30.04, 122.32 0.68 M56.13 75.28 C74.71 54.29, 92.77 32.13, 122.07 -0.65 M60.61 75.77 C82.87 49.41, 106.82 22.03, 128.12 -0.99 M60.64 76.11 C77.85 57.62, 93.26 38.41, 126.07 -0.28 M66.86 77.15 C91.87 46.8, 115.22 17, 133.98 0.77 M65.73 75.95 C80.91 57.49, 98.33 39.63, 131.75 -0.9 M71.2 76.16 C87.47 57.85, 102.84 38.88, 139.01 -1.49 M72.15 76.46 C85.22 59.71, 101.27 42.02, 136.93 0.19 M77.6 75.62 C93.8 57.68, 106.5 42.66, 142.08 0.96 M76.48 75.42 C93.44 57.39, 110.43 39.67, 143.73 0.33 M83.52 77.54 C109.69 46.36, 132 17.56, 148.66 0.93 M82.85 76.81 C96.07 59.83, 110.94 42.1, 148.23 -0.37 M88.61 75.77 C110.08 49.26, 135.45 22.39, 152.21 -0.83 M86.46 77.57 C111.6 49.96, 133.92 22.54, 154.69 -1.02 M92.9 76.09 C119.19 47.91, 147.73 14.47, 157.05 0.27 M92.53 75.96 C114.37 50.5, 136.69 25.85, 159.19 0.17 M98.94 76.37 C118.48 52.9, 135.74 31.84, 163.76 0.52 M97.32 75.9 C122.22 46.6, 147.61 17.61, 163.88 -0.1 M104.51 75.17 C119.81 55.54, 139.42 36.68, 168.01 -0.24 M103.59 75.67 C128.07 47.81, 153.48 18.61, 168.61 -0.12 M109.5 75.64 C121.97 59.88, 136.76 41.37, 173.95 1.31 M108.34 76.11 C132.17 50.73, 156.62 22.09, 175.16 -1.14 M113.3 77.34 C134.13 51.67, 157.05 27.24, 181.13 -0.21 M112.99 76.56 C130.47 58.22, 144.54 40.2, 180.9 0.73 M117.65 76.21 C133.23 59.15, 150.05 44.07, 185.81 1.03 M119.06 77.03 C137.72 56.2, 157.67 33.5, 184.99 0.53 M124.04 76.34 C146.17 52.37, 167.56 25.69, 191.86 1.94 M124.33 76.18 C144.32 54.12, 162.13 31.97, 190.05 0.58 M128.58 77.93 C153.43 46.57, 177.6 21.3, 196.16 -1.63 M128.58 77.43 C155.1 47.16, 181.2 17.98, 196.39 0.48 M135.33 77.1 C152.61 55.09, 172.38 31.55, 199.44 1 M135.75 76.98 C149.75 59.91, 163.84 42.33, 201.65 -0.78 M139.26 77.81 C160.39 55.06, 175.85 35.16, 207.67 -0.81 M139.62 75.94 C153.89 60.32, 169.23 42.15, 207.02 -0.81 M147.56 75.73 C164.83 55.83, 182.93 36, 210.92 0.9 M146.02 76.31 C170.54 47.34, 195.71 17.44, 212.89 0.32 M150.52 78.08 C173.91 52.19, 194.78 26.2, 216.78 0.54 M150.5 77.12 C165.82 59.82, 179.82 44.2, 217.09 0.06 M154.94 75.53 C172.91 57.17, 192.68 37.88, 221.17 -1.18 M156.51 76.44 C172.14 58.78, 188.17 40.35, 222.54 -0.51 M162.97 78.11 C177.97 53.99, 196.94 34.46, 229.78 -1.34 M161.11 77.45 C183.16 51.6, 205.2 26.63, 227.44 -0.64 M165.5 75.01 C194.37 47.63, 219.05 15.84, 232.88 1.07 M167.15 76.53 C189.1 51.42, 210.02 26.84, 232.97 0.2 M173.04 78.51 C186.71 58.11, 203.67 40.42, 238.1 1.74 M170.95 77.29 C192.32 53.61, 212.5 29.3, 238.81 1.06 M177.08 75.83 C202.91 47.47, 224.46 19.83, 244.53 -0.81 M178.49 76.66 C196.68 55.07, 215.51 33.59, 244.14 -0.12 M180.98 77.04 C194.45 61.26, 209.52 43.89, 248.94 -1.11 M183.1 76.93 C204.52 52.67, 225.41 27.19, 248.55 -0.24 M189.32 74.87 C203.93 57.02, 220.87 38.5, 254.43 1.88 M187.66 75.81 C204.55 56.14, 220.82 37.5, 253.62 -0.18 M194.83 76.66 C211.13 57, 230.1 35.61, 261.37 0.66 M192.26 76.54 C213.52 51.35, 234.56 28.79, 258.59 1.22 M199.69 76.17 C217.28 51.89, 239.21 29.63, 264.7 -0.96 M198.4 75.87 C214.46 58.64, 227.95 42.4, 264.55 -0.76 M202.47 77.52 C230.66 47.54, 253.84 19.46, 268.9 0.04 M204.7 76.21 C220.89 57.65, 235.01 41.51, 270.13 -0.64 M210.8 75.74 C225.02 54.65, 245.62 37.34, 277.27 1.75 M208.38 76.39 C228.66 54.19, 248.62 29.6, 275.69 -0.73 M215.57 76.95 C233.23 55.92, 252.15 32.85, 278.88 1.22 M214.28 75.95 C242.13 46.76, 266.64 15.15, 280.98 1 M221.06 78.49 C236.84 52.9, 259.18 29.95, 285.89 -1.71 M219.82 77.55 C240.17 52.36, 261.23 27.65, 285.36 -1.07 M225.64 77.48 C241.65 56.29, 259.49 35.34, 292.46 -0.45 M224.48 75.65 C245.85 52.54, 267.74 26.91, 291.5 -0.12 M228.7 74.79 C251.93 53.78, 270.99 31.15, 296.1 -1.88 M229.57 76.71 C253.84 50.81, 274.82 25.29, 297.51 -0.85 M235.98 74.82 C250.79 58.9, 265.8 42.51, 300.59 1.6 M236.35 77.13 C257.15 52.23, 278.58 26.07, 302.69 0.63 M242.44 77.45 C262.33 49.75, 285.46 23.91, 309.28 -0.12 M239.75 77.4 C262.98 50.32, 286.46 24.02, 307.67 -1.22 M245.7 77.87 C266.39 55.47, 286.71 30.1, 310.74 2.61 M246.54 76.1 C265.79 53.03, 285.49 30.53, 310.8 2.3 M252.81 78.46 C266.01 59.8, 277.19 44.13, 311.39 7.72 M251.05 76.02 C264.57 63.06, 275.14 49.79, 311.72 8.86 M257.73 76.7 C274.42 55.57, 294.72 34.88, 308.96 13.32 M257.3 76.18 C273.78 56.07, 292.08 35.64, 311.48 15.16 M260.14 77 C277.76 57.71, 297.32 37.09, 311.36 18.12 M262.76 75.91 C276.28 61.19, 289.15 44.86, 310.33 19.53 M266.83 74.59 C276.91 64, 289.75 51.4, 310.16 25.78 M268.47 76.9 C280.83 59.88, 295.91 44.93, 309.98 26.49 M274.58 75.43 C280.19 65.22, 290.58 53.56, 313.28 33.52 M272.78 77.29 C282.19 65.3, 291.46 56.05, 311.09 31.55 M279.53 76.01 C290.84 64.09, 301.91 51.01, 311.89 40.04 M277.48 75.69 C289.13 65.19, 299.68 52.23, 311 39.3 M284.08 75.3 C288.4 69.54, 295.65 62.37, 309.11 46.08 M283.57 77.3 C292.94 63.84, 305.36 51.4, 311.23 44.16 M290.22 74.59 C291.84 70.49, 299.15 65.79, 310.17 50.59 M289.36 75.9 C297.17 66.92, 306.4 56.1, 310.49 50.76 M294.44 77.37 C299.88 71.54, 307.14 62.9, 312.58 58.86 M294.22 75.98 C301.03 68.51, 306.85 61.25, 311.58 56.22 M300.92 77.08 C303.32 72.4, 309.7 65.77, 310.89 63.06 M298.8 76.7 C301.52 73.62, 304.66 70.28, 311.02 62.92 M304.85 77.04 C306.18 75.05, 306.73 73.85, 311.17 69.69 M304.43 76.41 C306.56 74.07, 308.87 71.17, 310.79 68.87" stroke="#ced4da" stroke-width="0.5" fill="none"></path><path d="M-0.26 -0.54 C74.46 0.18, 151.03 0.93, 309.26 0.29 M0.14 0.26 C64.2 2.52, 128.14 1.97, 308.37 0 M310.5 1.23 C310.6 23.52, 306.88 45.39, 308.55 73.75 M308.06 -0.82 C309.53 29.65, 310.39 57.08, 308.24 74.56 M307.87 74.1 C242.11 70.98, 176.57 71.83, -1.02 73.36 M308.87 74.37 C223.88 76.18, 139.64 76.25, 0.33 74.16 M0.89 72.72 C1.25 49.18, 1.4 20.71, -1.22 -0.55 M0.06 74.68 C-0.66 46.22, -0.42 19.27, -0.92 -0.09" stroke="#000000" stroke-width="1" fill="none"></path></g><g transform="translate(35.60003662109375 37.799957275390625) rotate(0 95 12.5)"><text x="0" y="18" font-family="Virgil, Segoe UI Emoji" font-size="20px" fill="#000000" text-anchor="start" style="white-space: pre;" direction="ltr">Simulate data in R</text></g><g stroke-linecap="round"><g transform="translate(226 63.600006103515625) rotate(0 20.975142399738615 -20.433713802015404)"><path d="M0.26 0.45 C7.31 -6.29, 36.08 -32.67, 43.02 -39.7 M-1.07 -0.36 C5.79 -7.49, 34.67 -34.55, 42.23 -41.32" stroke="#000000" stroke-width="1" fill="none"></path></g></g><g transform="translate(260.4000549316406 70.800048828125) rotate(0 0.00004999999998744897 0.00004999999998744897)" stroke="none"><path fill="#000000" d="M 1.57,-1.57 Q 1.57,-1.57 1.77,-1.27 1.98,-0.98 2.09,-0.64 2.20,-0.29 2.19,0.05 2.18,0.41 2.05,0.75 1.93,1.09 1.70,1.37 1.48,1.65 1.18,1.84 0.87,2.04 0.52,2.12 0.18,2.21 -0.17,2.18 -0.53,2.15 -0.86,2.01 -1.19,1.87 -1.46,1.63 -1.73,1.39 -1.90,1.07 -2.08,0.76 -2.15,0.41 -2.21,0.05 -2.17,-0.29 -2.12,-0.65 -1.96,-0.97 -1.80,-1.29 -1.54,-1.54 -1.29,-1.80 -0.97,-1.96 -0.65,-2.12 -0.29,-2.17 0.06,-2.21 0.41,-2.15 0.76,-2.08 1.07,-1.90 1.39,-1.73 1.63,-1.46 1.87,-1.19 2.01,-0.86 2.15,-0.53 2.18,-0.17 2.21,0.18 2.12,0.52 2.03,0.87 1.84,1.18 1.65,1.48 1.37,1.70 1.09,1.93 0.75,2.05 0.41,2.18 0.05,2.19 -0.30,2.20 -0.64,2.09 -0.98,1.98 -1.27,1.77 -1.57,1.56 -1.57,1.57 -1.57,1.57 -1.73,1.35 -1.90,1.14 -2.01,0.90 -2.12,0.66 -2.16,0.39 -2.21,0.13 -2.20,-0.13 -2.18,-0.40 -2.10,-0.65 -2.02,-0.91 -1.88,-1.14 -1.74,-1.36 -1.55,-1.55 -1.36,-1.74 -1.14,-1.88 -0.91,-2.02 -0.65,-2.10 -0.40,-2.18 -0.13,-2.20 0.13,-2.21 0.39,-2.16 0.66,-2.12 0.90,-2.01 1.14,-1.90 1.35,-1.73 1.57,-1.57 1.57,-1.57 L 1.57,-1.57 Z"></path></g><g transform="translate(263.6000671386719 62.00004577636719) rotate(0 0.00004999999998744897 0.00004999999998744897)" stroke="none"><path fill="#000000" d="M 1.57,-1.57 Q 1.57,-1.57 1.77,-1.27 1.98,-0.98 2.09,-0.64 2.20,-0.29 2.19,0.05 2.18,0.41 2.05,0.75 1.93,1.09 1.70,1.37 1.48,1.65 1.18,1.84 0.87,2.04 0.52,2.12 0.18,2.21 -0.17,2.18 -0.53,2.15 -0.86,2.01 -1.19,1.87 -1.46,1.63 -1.73,1.39 -1.90,1.07 -2.08,0.76 -2.15,0.41 -2.21,0.05 -2.17,-0.29 -2.12,-0.65 -1.96,-0.97 -1.80,-1.29 -1.54,-1.54 -1.29,-1.80 -0.97,-1.96 -0.65,-2.12 -0.29,-2.17 0.06,-2.21 0.41,-2.15 0.76,-2.08 1.07,-1.90 1.39,-1.73 1.63,-1.46 1.87,-1.19 2.01,-0.86 2.15,-0.53 2.18,-0.17 2.21,0.18 2.12,0.52 2.03,0.87 1.84,1.18 1.65,1.48 1.37,1.70 1.09,1.93 0.75,2.05 0.41,2.18 0.05,2.19 -0.30,2.20 -0.64,2.09 -0.98,1.98 -1.27,1.77 -1.57,1.56 -1.57,1.57 -1.57,1.57 -1.73,1.35 -1.90,1.14 -2.01,0.90 -2.12,0.66 -2.16,0.39 -2.21,0.13 -2.20,-0.13 -2.18,-0.40 -2.10,-0.65 -2.02,-0.91 -1.88,-1.14 -1.74,-1.36 -1.55,-1.55 -1.36,-1.74 -1.14,-1.88 -0.91,-2.02 -0.65,-2.10 -0.40,-2.18 -0.13,-2.20 0.13,-2.21 0.39,-2.16 0.66,-2.12 0.90,-2.01 1.14,-1.90 1.35,-1.73 1.57,-1.57 1.57,-1.57 L 1.57,-1.57 Z"></path></g><g transform="translate(275.6000671386719 66.800048828125) rotate(0 0.00004999999998744897 0.00004999999998744897)" stroke="none"><path fill="#000000" d="M 1.57,-1.57 Q 1.57,-1.57 1.77,-1.27 1.98,-0.98 2.09,-0.64 2.20,-0.29 2.19,0.05 2.18,0.41 2.05,0.75 1.93,1.09 1.70,1.37 1.48,1.65 1.18,1.84 0.87,2.04 0.52,2.12 0.18,2.21 -0.17,2.18 -0.53,2.15 -0.86,2.01 -1.19,1.87 -1.46,1.63 -1.73,1.39 -1.90,1.07 -2.08,0.76 -2.15,0.41 -2.21,0.05 -2.17,-0.29 -2.12,-0.65 -1.96,-0.97 -1.80,-1.29 -1.54,-1.54 -1.29,-1.80 -0.97,-1.96 -0.65,-2.12 -0.29,-2.17 0.06,-2.21 0.41,-2.15 0.76,-2.08 1.07,-1.90 1.39,-1.73 1.63,-1.46 1.87,-1.19 2.01,-0.86 2.15,-0.53 2.18,-0.17 2.21,0.18 2.12,0.52 2.03,0.87 1.84,1.18 1.65,1.48 1.37,1.70 1.09,1.93 0.75,2.05 0.41,2.18 0.05,2.19 -0.30,2.20 -0.64,2.09 -0.98,1.98 -1.27,1.77 -1.57,1.56 -1.57,1.57 -1.57,1.57 -1.73,1.35 -1.90,1.14 -2.01,0.90 -2.12,0.66 -2.16,0.39 -2.21,0.13 -2.20,-0.13 -2.18,-0.40 -2.10,-0.65 -2.02,-0.91 -1.88,-1.14 -1.74,-1.36 -1.55,-1.55 -1.36,-1.74 -1.14,-1.88 -0.91,-2.02 -0.65,-2.10 -0.40,-2.18 -0.13,-2.20 0.13,-2.21 0.39,-2.16 0.66,-2.12 0.90,-2.01 1.14,-1.90 1.35,-1.73 1.57,-1.57 1.57,-1.57 L 1.57,-1.57 Z"></path></g><g transform="translate(277.2000427246094 48.40003967285156) rotate(0 0.00004999999998744897 0.00004999999998744897)" stroke="none"><path fill="#000000" d="M 1.57,-1.57 Q 1.57,-1.57 1.77,-1.27 1.98,-0.98 2.09,-0.64 2.20,-0.29 2.19,0.05 2.18,0.41 2.05,0.75 1.93,1.09 1.70,1.37 1.48,1.65 1.18,1.84 0.87,2.04 0.52,2.12 0.18,2.21 -0.17,2.18 -0.53,2.15 -0.86,2.01 -1.19,1.87 -1.46,1.63 -1.73,1.39 -1.90,1.07 -2.08,0.76 -2.15,0.41 -2.21,0.05 -2.17,-0.29 -2.12,-0.65 -1.96,-0.97 -1.80,-1.29 -1.54,-1.54 -1.29,-1.80 -0.97,-1.96 -0.65,-2.12 -0.29,-2.17 0.06,-2.21 0.41,-2.15 0.76,-2.08 1.07,-1.90 1.39,-1.73 1.63,-1.46 1.87,-1.19 2.01,-0.86 2.15,-0.53 2.18,-0.17 2.21,0.18 2.12,0.52 2.03,0.87 1.84,1.18 1.65,1.48 1.37,1.70 1.09,1.93 0.75,2.05 0.41,2.18 0.05,2.19 -0.30,2.20 -0.64,2.09 -0.98,1.98 -1.27,1.77 -1.57,1.56 -1.57,1.57 -1.57,1.57 -1.73,1.35 -1.90,1.14 -2.01,0.90 -2.12,0.66 -2.16,0.39 -2.21,0.13 -2.20,-0.13 -2.18,-0.40 -2.10,-0.65 -2.02,-0.91 -1.88,-1.14 -1.74,-1.36 -1.55,-1.55 -1.36,-1.74 -1.14,-1.88 -0.91,-2.02 -0.65,-2.10 -0.40,-2.18 -0.13,-2.20 0.13,-2.21 0.39,-2.16 0.66,-2.12 0.90,-2.01 1.14,-1.90 1.35,-1.73 1.57,-1.57 1.57,-1.57 L 1.57,-1.57 Z"></path></g><g transform="translate(283.6000671386719 55.60005187988281) rotate(0 0.00004999999998744897 0.00004999999998744897)" stroke="none"><path fill="#000000" d="M 1.57,-1.57 Q 1.57,-1.57 1.77,-1.27 1.98,-0.98 2.09,-0.64 2.20,-0.29 2.19,0.05 2.18,0.41 2.05,0.75 1.93,1.09 1.70,1.37 1.48,1.65 1.18,1.84 0.87,2.04 0.52,2.12 0.18,2.21 -0.17,2.18 -0.53,2.15 -0.86,2.01 -1.19,1.87 -1.46,1.63 -1.73,1.39 -1.90,1.07 -2.08,0.76 -2.15,0.41 -2.21,0.05 -2.17,-0.29 -2.12,-0.65 -1.96,-0.97 -1.80,-1.29 -1.54,-1.54 -1.29,-1.80 -0.97,-1.96 -0.65,-2.12 -0.29,-2.17 0.06,-2.21 0.41,-2.15 0.76,-2.08 1.07,-1.90 1.39,-1.73 1.63,-1.46 1.87,-1.19 2.01,-0.86 2.15,-0.53 2.18,-0.17 2.21,0.18 2.12,0.52 2.03,0.87 1.84,1.18 1.65,1.48 1.37,1.70 1.09,1.93 0.75,2.05 0.41,2.18 0.05,2.19 -0.30,2.20 -0.64,2.09 -0.98,1.98 -1.27,1.77 -1.57,1.56 -1.57,1.57 -1.57,1.57 -1.73,1.35 -1.90,1.14 -2.01,0.90 -2.12,0.66 -2.16,0.39 -2.21,0.13 -2.20,-0.13 -2.18,-0.40 -2.10,-0.65 -2.02,-0.91 -1.88,-1.14 -1.74,-1.36 -1.55,-1.55 -1.36,-1.74 -1.14,-1.88 -0.91,-2.02 -0.65,-2.10 -0.40,-2.18 -0.13,-2.20 0.13,-2.21 0.39,-2.16 0.66,-2.12 0.90,-2.01 1.14,-1.90 1.35,-1.73 1.57,-1.57 1.57,-1.57 L 1.57,-1.57 Z"></path></g><g transform="translate(294.8000183105469 38.800048828125) rotate(0 0.00004999999998744897 0.00004999999998744897)" stroke="none"><path fill="#000000" d="M 1.57,-1.57 Q 1.57,-1.57 1.77,-1.27 1.98,-0.98 2.09,-0.64 2.20,-0.29 2.19,0.05 2.18,0.41 2.05,0.75 1.93,1.09 1.70,1.37 1.48,1.65 1.18,1.84 0.87,2.04 0.52,2.12 0.18,2.21 -0.17,2.18 -0.53,2.15 -0.86,2.01 -1.19,1.87 -1.46,1.63 -1.73,1.39 -1.90,1.07 -2.08,0.76 -2.15,0.41 -2.21,0.05 -2.17,-0.29 -2.12,-0.65 -1.96,-0.97 -1.80,-1.29 -1.54,-1.54 -1.29,-1.80 -0.97,-1.96 -0.65,-2.12 -0.29,-2.17 0.06,-2.21 0.41,-2.15 0.76,-2.08 1.07,-1.90 1.39,-1.73 1.63,-1.46 1.87,-1.19 2.01,-0.86 2.15,-0.53 2.18,-0.17 2.21,0.18 2.12,0.52 2.03,0.87 1.84,1.18 1.65,1.48 1.37,1.70 1.09,1.93 0.75,2.05 0.41,2.18 0.05,2.19 -0.30,2.20 -0.64,2.09 -0.98,1.98 -1.27,1.77 -1.57,1.56 -1.57,1.57 -1.57,1.57 -1.73,1.35 -1.90,1.14 -2.01,0.90 -2.12,0.66 -2.16,0.39 -2.21,0.13 -2.20,-0.13 -2.18,-0.40 -2.10,-0.65 -2.02,-0.91 -1.88,-1.14 -1.74,-1.36 -1.55,-1.55 -1.36,-1.74 -1.14,-1.88 -0.91,-2.02 -0.65,-2.10 -0.40,-2.18 -0.13,-2.20 0.13,-2.21 0.39,-2.16 0.66,-2.12 0.90,-2.01 1.14,-1.90 1.35,-1.73 1.57,-1.57 1.57,-1.57 L 1.57,-1.57 Z"></path></g><g transform="translate(296.4000549316406 28.400039672851562) rotate(0 0.00004999999998744897 0.00004999999998744897)" stroke="none"><path fill="#000000" d="M 1.57,-1.57 Q 1.57,-1.57 1.77,-1.27 1.98,-0.98 2.09,-0.64 2.20,-0.29 2.19,0.05 2.18,0.41 2.05,0.75 1.93,1.09 1.70,1.37 1.48,1.65 1.18,1.84 0.87,2.04 0.52,2.12 0.18,2.21 -0.17,2.18 -0.53,2.15 -0.86,2.01 -1.19,1.87 -1.46,1.63 -1.73,1.39 -1.90,1.07 -2.08,0.76 -2.15,0.41 -2.21,0.05 -2.17,-0.29 -2.12,-0.65 -1.96,-0.97 -1.80,-1.29 -1.54,-1.54 -1.29,-1.80 -0.97,-1.96 -0.65,-2.12 -0.29,-2.17 0.06,-2.21 0.41,-2.15 0.76,-2.08 1.07,-1.90 1.39,-1.73 1.63,-1.46 1.87,-1.19 2.01,-0.86 2.15,-0.53 2.18,-0.17 2.21,0.18 2.12,0.52 2.03,0.87 1.84,1.18 1.65,1.48 1.37,1.70 1.09,1.93 0.75,2.05 0.41,2.18 0.05,2.19 -0.30,2.20 -0.64,2.09 -0.98,1.98 -1.27,1.77 -1.57,1.56 -1.57,1.57 -1.57,1.57 -1.73,1.35 -1.90,1.14 -2.01,0.90 -2.12,0.66 -2.16,0.39 -2.21,0.13 -2.20,-0.13 -2.18,-0.40 -2.10,-0.65 -2.02,-0.91 -1.88,-1.14 -1.74,-1.36 -1.55,-1.55 -1.36,-1.74 -1.14,-1.88 -0.91,-2.02 -0.65,-2.10 -0.40,-2.18 -0.13,-2.20 0.13,-2.21 0.39,-2.16 0.66,-2.12 0.90,-2.01 1.14,-1.90 1.35,-1.73 1.57,-1.57 1.57,-1.57 L 1.57,-1.57 Z"></path></g><g transform="translate(290.8000183105469 51.59999084472656) rotate(0 0.00004999999998744897 0.00004999999998744897)" stroke="none"><path fill="#000000" d="M 1.57,-1.57 Q 1.57,-1.57 1.77,-1.27 1.98,-0.98 2.09,-0.64 2.20,-0.29 2.19,0.05 2.18,0.41 2.05,0.75 1.93,1.09 1.70,1.37 1.48,1.65 1.18,1.84 0.87,2.04 0.52,2.12 0.18,2.21 -0.17,2.18 -0.53,2.15 -0.86,2.01 -1.19,1.87 -1.46,1.63 -1.73,1.39 -1.90,1.07 -2.08,0.76 -2.15,0.41 -2.21,0.05 -2.17,-0.29 -2.12,-0.65 -1.96,-0.97 -1.80,-1.29 -1.54,-1.54 -1.29,-1.80 -0.97,-1.96 -0.65,-2.12 -0.29,-2.17 0.06,-2.21 0.41,-2.15 0.76,-2.08 1.07,-1.90 1.39,-1.73 1.63,-1.46 1.87,-1.19 2.01,-0.86 2.15,-0.53 2.18,-0.17 2.21,0.18 2.12,0.52 2.03,0.87 1.84,1.18 1.65,1.48 1.37,1.70 1.09,1.93 0.75,2.05 0.41,2.18 0.05,2.19 -0.30,2.20 -0.64,2.09 -0.98,1.98 -1.27,1.77 -1.57,1.56 -1.57,1.57 -1.57,1.57 -1.73,1.35 -1.90,1.14 -2.01,0.90 -2.12,0.66 -2.16,0.39 -2.21,0.13 -2.20,-0.13 -2.18,-0.40 -2.10,-0.65 -2.02,-0.91 -1.88,-1.14 -1.74,-1.36 -1.55,-1.55 -1.36,-1.74 -1.14,-1.88 -0.91,-2.02 -0.65,-2.10 -0.40,-2.18 -0.13,-2.20 0.13,-2.21 0.39,-2.16 0.66,-2.12 0.90,-2.01 1.14,-1.90 1.35,-1.73 1.57,-1.57 1.57,-1.57 L 1.57,-1.57 Z"></path></g><g transform="translate(285.2000427246094 41.2000732421875) rotate(0 0.00004999999998744897 0.00004999999998744897)" stroke="none"><path fill="#000000" d="M 1.57,-1.57 Q 1.57,-1.57 1.77,-1.27 1.98,-0.98 2.09,-0.64 2.20,-0.29 2.19,0.05 2.18,0.41 2.05,0.75 1.93,1.09 1.70,1.37 1.48,1.65 1.18,1.84 0.87,2.04 0.52,2.12 0.18,2.21 -0.17,2.18 -0.53,2.15 -0.86,2.01 -1.19,1.87 -1.46,1.63 -1.73,1.39 -1.90,1.07 -2.08,0.76 -2.15,0.41 -2.21,0.05 -2.17,-0.29 -2.12,-0.65 -1.96,-0.97 -1.80,-1.29 -1.54,-1.54 -1.29,-1.80 -0.97,-1.96 -0.65,-2.12 -0.29,-2.17 0.06,-2.21 0.41,-2.15 0.76,-2.08 1.07,-1.90 1.39,-1.73 1.63,-1.46 1.87,-1.19 2.01,-0.86 2.15,-0.53 2.18,-0.17 2.21,0.18 2.12,0.52 2.03,0.87 1.84,1.18 1.65,1.48 1.37,1.70 1.09,1.93 0.75,2.05 0.41,2.18 0.05,2.19 -0.30,2.20 -0.64,2.09 -0.98,1.98 -1.27,1.77 -1.57,1.56 -1.57,1.57 -1.57,1.57 -1.73,1.35 -1.90,1.14 -2.01,0.90 -2.12,0.66 -2.16,0.39 -2.21,0.13 -2.20,-0.13 -2.18,-0.40 -2.10,-0.65 -2.02,-0.91 -1.88,-1.14 -1.74,-1.36 -1.55,-1.55 -1.36,-1.74 -1.14,-1.88 -0.91,-2.02 -0.65,-2.10 -0.40,-2.18 -0.13,-2.20 0.13,-2.21 0.39,-2.16 0.66,-2.12 0.90,-2.01 1.14,-1.90 1.35,-1.73 1.57,-1.57 1.57,-1.57 L 1.57,-1.57 Z"></path></g><g stroke-opacity="0.3" fill-opacity="0.3" stroke-linecap="round" transform="translate(10 144.40000915527344) rotate(0 160 41.19999694824219)"><path d="M0 0 C0 0, 0 0, 0 0 M0 0 C0 0, 0 0, 0 0 M0.17 5.82 C1.07 5.63, 1.47 4.06, 4.46 0.36 M-0.4 6.08 C1.38 3.94, 3.14 2.17, 4.85 0.02 M-1.37 12.92 C2.39 6.65, 7.68 4.76, 10.73 0.64 M-0.64 12.4 C2.52 8.87, 6.19 5.82, 10.16 0.06 M-1.17 19.41 C5.81 10.62, 11.22 5.38, 16.2 0.27 M-0.11 18.49 C4.01 14.98, 7.01 10.6, 15.61 -0.61 M1.8 26.05 C9.7 15.75, 15.52 5.56, 21.7 -0.57 M-0.37 24.53 C7.35 15.41, 15.46 5.46, 21.19 -0.33 M-0.59 31.01 C7.66 22.79, 16.43 14.02, 27 -0.45 M0.24 31.48 C7.2 22.03, 14.4 13.66, 26.84 -0.32 M1.63 36.6 C9.05 29.59, 17.46 17.1, 31.37 -1.66 M-1.11 36.93 C9.74 24.75, 20.87 13.91, 31.04 0.71 M-1.74 41.54 C14.11 27.13, 24.97 11.77, 36.43 1.84 M1.05 41.56 C8.4 33.4, 15.05 24.73, 36.36 0.71 M1.17 49.18 C13.52 30.82, 29.98 13.35, 43.55 0.27 M-0.58 49.41 C14.37 33.03, 26.96 19.33, 41.67 0.26 M0.91 56 C10.04 41.35, 19.96 31.43, 48.68 -0.03 M-0.48 54.67 C13.75 40.81, 24.32 25.46, 47.79 0.73 M1.69 59.62 C13.02 47.3, 20.19 35.47, 51.81 -0.83 M-0.69 61.83 C20.97 37.57, 42.3 11.86, 53.73 0.26 M-1.97 67.32 C17.72 48.19, 34.14 30.01, 59.75 -0.03 M-1.22 66.39 C18.49 43.69, 39.34 21.87, 58.35 -0.11 M0.95 72.21 C19.28 50.45, 36.19 30.24, 63.56 0.15 M0.9 73.23 C13.85 57.25, 26.41 40.45, 64.51 -0.44 M0.09 81.36 C25.66 50.94, 46.32 25.18, 69.43 1.06 M0.55 78.93 C17.58 58.62, 33.96 39.88, 68.83 0.25 M1.8 82.89 C18.88 64.6, 35.37 46.03, 76.02 -0.5 M1.42 83.02 C29.1 50.09, 57.05 18.17, 73.84 -0.06 M7.96 85.87 C35.49 53.71, 60.24 23.36, 81.35 -0.38 M5.69 84.13 C25.75 61.98, 46.13 38.48, 79.65 -0.23 M13.5 85.24 C32.21 62.7, 51.79 39.46, 84.2 0.73 M12.3 83 C34.32 56.55, 56.53 31.15, 84.18 0.05 M15.78 85.62 C35.64 62.55, 55.86 43.59, 90.94 1.25 M17.16 84.57 C31.93 65.29, 47.08 49.2, 90.81 0.33 M24.03 81.68 C44.7 55.84, 68.53 32.03, 96.94 -1.49 M23.44 82.48 C37.7 65.59, 54.45 48.7, 96.57 -0.53 M26.2 82.07 C44.76 60.42, 64.97 40.04, 101.44 0.71 M27.2 83.22 C50.83 58.19, 73.54 30.8, 99.88 -0.29 M34.38 85.23 C61.69 53.05, 84.16 23.29, 104.9 -1.29 M33.58 84.11 C50.78 61.01, 70.06 39.01, 106.65 -1.31 M39.63 83.33 C53.52 62.74, 71.88 43.88, 111.9 1.96 M38.55 83.43 C65.29 55.27, 91.28 25.78, 112.05 -0.41 M45.38 82.09 C59.18 66.78, 75.57 46.18, 115.87 -0.87 M45.02 82.44 C61.58 62.25, 80.13 41.42, 115.99 -0.15 M50.28 84.7 C76.99 55.25, 101.52 24.43, 121.2 -1.84 M48.58 83.47 C76.92 51.83, 105.02 17.97, 122.11 -0.45 M53.62 83.66 C84.25 51.92, 113.04 18.48, 125.44 -1.5 M55.67 83.95 C80.38 52.89, 107.57 23.19, 126.73 -0.28 M58.16 84.68 C86.66 52.25, 113.12 18.53, 132.01 -0.36 M59.24 84.51 C87.31 54.12, 112.46 24.35, 132.41 -0.9 M63.54 82.53 C81.98 63.8, 95.8 47.93, 137.05 1.02 M65.01 83 C90.85 53.71, 115.57 24.39, 137.62 0.27 M69.13 84.94 C98.81 52.13, 126.9 18.99, 142.83 -2.09 M71.07 84.61 C93.22 56.95, 116.1 31.88, 142.93 -0.36 M74.74 85.22 C98.85 56.58, 121.84 30.07, 148.59 1.3 M75.48 84.63 C102.34 50.12, 130.63 17.8, 148.69 -0.4 M82.82 82.36 C99.06 60.77, 116.87 40.26, 151.96 1.7 M81.2 82.77 C107.29 53.35, 131.93 23.1, 153.22 0.48 M84.57 85.19 C113.56 52.8, 142.83 17.56, 159.78 1.13 M85.07 83.51 C100.21 66, 115.83 48.68, 158.53 0.72 M92.7 84.98 C108.74 62.68, 124.94 47.32, 165.53 0.89 M91.36 82.87 C113.91 57.33, 138.11 30.47, 164.44 0.83 M96.26 83.33 C117.41 55.72, 140.3 31.71, 168.14 1.52 M97.42 84.49 C119.87 56.14, 145.57 27.15, 170.34 -0.45 M102.04 84.04 C123.6 62.21, 139.89 39.13, 173.45 -1.42 M101.88 83.7 C124.86 57.59, 146.43 31.82, 175.33 -0.18 M105.47 84.99 C127.85 59.22, 150.64 32.88, 181.01 -1.37 M106.38 83.56 C129.76 55.27, 154.54 29.13, 179.92 0.92 M111.94 81.98 C134.59 58.38, 156.78 30.78, 185.49 -0.97 M113.68 82.96 C137.6 56.36, 161.31 30.63, 186.22 0.47 M119.71 84.68 C145.14 51, 172.84 21.03, 191.54 -0.16 M117.42 84.63 C139.09 59.64, 158.22 37.55, 191.65 0.55 M125.28 84.41 C143.3 62.4, 164.33 38.88, 195.18 -0.3 M124.27 83.26 C142.19 64.09, 158.87 42.79, 197.06 -0.29 M130.27 82.11 C149.13 59.86, 170.65 31.75, 202.68 -0.29 M127.61 83.51 C151.13 56.72, 172.46 30.34, 200.51 1.09 M134.79 84.14 C149.14 66.33, 166.68 45.58, 207.91 -0.75 M133.74 84.1 C153.14 62.31, 171.82 39.91, 207.37 0.4 M140.29 82.19 C168.74 52.68, 198.91 17.48, 211.22 -0.04 M139.58 83.9 C162.71 56.1, 186.42 30.12, 212.08 0.07 M142.98 85.15 C170.37 51.09, 200.44 22.53, 216.84 1.51 M144.81 83.92 C161.01 64.44, 179.39 44.42, 218.27 -0.74 M148.68 82.99 C172.66 60.02, 192.32 34.39, 223.73 1.53 M149.59 83.44 C177.6 50.22, 207.09 17.38, 222.52 -0.05 M154.19 82.63 C179.12 57.11, 199.43 32.57, 226.98 -0.51 M154.76 84.03 C179.15 55.55, 201.75 29.02, 228.48 -1.03 M162.19 83.8 C181.36 59.63, 203.35 32.58, 232.63 0.54 M159.48 83.65 C176.91 65.51, 191.97 47.88, 232.59 0.09 M166.58 82.93 C194.48 52.05, 217.49 24.41, 238.46 0.17 M165.48 82.67 C194.03 51.39, 222.45 18.37, 237.64 0.82 M171.38 85.06 C196.21 54.33, 218.57 25.78, 244.12 0.29 M170.68 83.97 C190.36 62.4, 209.78 40.18, 243.66 0.73 M176.1 83.62 C193.61 63.28, 210.69 45.21, 249.24 1.43 M177.44 82.96 C202.12 53.26, 229.37 21.11, 248.97 -0.22 M182.62 84.43 C196.72 66.6, 214.46 49.15, 254.22 -0.73 M182.22 83.72 C208.43 51.55, 236.59 19.07, 253.66 -0.93 M188.53 81.44 C200.64 65.47, 215.85 49.69, 259.07 0.61 M187.74 82.97 C208.98 59.12, 230.35 34.88, 259.31 0.97 M194.08 84.74 C207.26 64.62, 223.8 47.07, 264.78 -0.84 M192.71 84.17 C208.46 64.49, 227.09 42.77, 265.14 -0.84 M198.8 85.07 C217 62.37, 236.12 39.14, 268.2 -0.51 M197.36 84.38 C217.07 59.68, 240.05 35.05, 269.75 0.67 M203.75 82.01 C218.1 62.44, 238.48 44.31, 275.43 0.83 M202.38 84.47 C223.44 61.11, 242.22 38.67, 275.24 -0.02 M209.62 84.11 C237.92 52.06, 263.08 19.08, 280.69 1.02 M207.89 83.54 C233.99 52.16, 260.89 22.19, 280.97 1.07 M213.46 85.46 C232.25 61.67, 253.44 38.25, 287.66 0.33 M213.02 83.67 C236.43 57.7, 261.57 30.55, 285.69 -0.56 M219.55 85.62 C241.76 55.38, 268.28 27.5, 292.4 1.36 M217.53 83.98 C237.33 64.19, 254.25 43.6, 291.25 0.25 M224.8 85.48 C250.75 54.47, 275.98 21.82, 296.72 0.89 M224.05 82.73 C239.24 66.5, 253.84 47.95, 296.81 0.31 M229.61 83.11 C245.43 67.23, 257.9 48.5, 303.02 1.83 M229.73 83.36 C250.33 59.03, 270.28 35.54, 302.47 0.21 M235.22 81.65 C250.23 64.98, 266.18 50.49, 307.7 0.96 M234.45 82.54 C259.1 53.96, 283.14 26.14, 307.51 0.31 M238.64 85.23 C257.36 64.81, 271.21 45.14, 312.03 0.96 M240.52 84.26 C253.21 67.85, 269.45 50.64, 312.07 0.86 M245.96 82.76 C273.29 51.4, 298.68 23.79, 319.51 -1.86 M244.82 83.86 C269.77 55.14, 294.16 27.8, 317.31 0.03 M251.28 83.87 C267.16 64.44, 282.25 46.84, 321.44 -0.04 M250.54 84.15 C278.56 53.04, 303.4 24.44, 321.82 1.51 M254.07 82.75 C271.67 62.64, 290.27 43.7, 321.64 9.55 M255.34 83.39 C279.72 55.84, 305.61 27.04, 321.11 7.29 M262.01 82.07 C283.76 56.08, 309.12 28.58, 322.49 12.81 M261.03 83.43 C274.88 67.13, 289.5 50.86, 322.49 12.93 M268.42 84.78 C288.87 59.76, 309.6 36.55, 320.55 18.64 M265.79 83.71 C279.98 67.21, 296.11 49.42, 321.52 19.98 M271.09 82.07 C283.72 66.9, 296.23 53.14, 323.29 27 M271.81 83.38 C291.94 61.91, 310.86 38.79, 321.5 26.18 M277.69 85.18 C288.38 72.48, 299.2 56.45, 323.86 32.82 M277.53 83.32 C293.43 63.24, 310.15 44.16, 321.13 31.65 M280.61 85.31 C292.42 68.69, 306.5 57.88, 321.93 38.57 M283.29 84.21 C291.3 73.52, 301.43 60.78, 322.05 37.55 M286.37 81.48 C297.28 71.24, 306.68 61.6, 321.72 42.45 M287.54 82.62 C298.09 72.71, 305.77 61.51, 321.82 44.53 M294.47 84.4 C302.25 71.29, 312.73 61.16, 322.27 50.47 M292.49 83.03 C303.81 71.86, 313.29 60.02, 320.88 50.95 M298.77 84.38 C304.59 75.02, 314.13 66.65, 322.09 57.09 M298.36 83.92 C305.43 75.58, 314.26 67.59, 322.08 55.76 M302.38 83.15 C308.59 76.44, 313.78 73.49, 322.04 61.11 M303.01 83.84 C309.31 75.01, 316.3 69.07, 322.36 62.49 M310.36 82.53 C310.13 79.81, 315.18 77.47, 322.08 70.24 M309.5 84.19 C310.88 79.77, 314.77 76.01, 322.31 68.13 M315.2 84.18 C315.09 81.86, 317.32 79.22, 322.87 73.82 M314.71 83.6 C316.44 80.41, 319.62 76.58, 321.49 75.08" stroke="#ced4da" stroke-width="0.5" fill="none"></path><path d="M1.07 -0.96 C68.94 0, 136.03 -1.22, 320.69 -0.67 M-0.56 0.39 C89.42 1.77, 180.07 1.35, 320.17 -0.58 M319.19 1.82 C318.11 21.28, 320.79 41.13, 319.31 83.96 M319.06 0.27 C320.79 19.58, 320.84 38.78, 319.64 83.08 M320.5 82.65 C223.77 80.84, 123.87 80.44, 1.15 83.37 M320.09 82.37 C198.92 82.18, 78.15 83.03, -0.59 82.13 M-0.15 81.04 C1.61 58.51, -0.35 35.13, -1.49 0.97 M-0.85 82.74 C-0.58 64.74, 0.43 48.72, -0.84 -0.81" stroke="#000000" stroke-width="1" fill="none"></path></g><g transform="translate(73.99996948242188 162.8999786376953) rotate(0 69.5 25)"><text x="0" y="17" font-family="Virgil, Segoe UI Emoji" font-size="20px" fill="#000000" text-anchor="start" style="white-space: pre;" direction="ltr">r2d3: create </text><text x="0" y="42" font-family="Virgil, Segoe UI Emoji" font-size="20px" fill="#000000" text-anchor="start" style="white-space: pre;" direction="ltr">initial d3 plot</text></g><g stroke-linecap="round" transform="translate(257.9999694824219 156.40000915527344) rotate(0 30.000015258789062 28.399993896484375)"><path d="M0 0 C0 0, 0 0, 0 0 M0 0 C0 0, 0 0, 0 0 M0.06 5.73 C0.93 4.08, 3.28 3.19, 4.68 -0.31 M-0.31 6.25 C0.88 4.97, 2 3.46, 5.34 0.61 M0.94 10.56 C2.36 8.83, 5.79 6.04, 12.22 -1 M-0.13 12.83 C2.88 9.08, 3.92 7.83, 10.78 0.49 M0.73 18.02 C4.09 13, 8.67 6.35, 16.92 0.09 M-0.23 18.86 C6.44 11.79, 10.54 3.93, 14.87 -0.22 M-0.34 24.01 C8.21 15.19, 13.93 8.28, 22.13 -1.36 M0.44 23.25 C6 19.09, 11.32 12.45, 21.61 0.63 M-0.46 31.4 C4.2 22.18, 11.48 19.38, 27.61 -1.32 M0.46 29.98 C5.5 25.04, 11.63 17.3, 26.75 -0.02 M-0.07 35.51 C8.42 27.92, 16.71 16.61, 32.48 0.7 M-0.38 37.72 C10.37 26.12, 19.21 13.18, 32.26 -0.69 M0.49 43.86 C11.25 29.7, 26.48 16.17, 38.46 1.27 M-0.11 42.29 C10.42 29.34, 19.57 18.69, 36.11 0.85 M-0.82 48.29 C10.9 34.95, 21.87 26.57, 43.27 0.88 M0.38 49.05 C14.96 33.16, 28.77 15.38, 42.43 -0.38 M0.92 53.58 C10.58 42.07, 20.66 31.28, 47.47 -0.12 M0.85 53.62 C18.43 33.71, 37.16 12.04, 47.18 -0.47 M2.47 59.1 C16.69 39.6, 31.94 23.09, 51.89 -1.71 M1.39 57.76 C14.31 43.09, 29.03 26.46, 52.38 -0.6 M7.19 57.63 C29.36 36.74, 45.72 10.39, 56.44 -0.27 M7.95 58.4 C19.15 44.02, 32.41 27.76, 57.76 1.08 M11.93 59.85 C25.96 42.55, 41.19 29.37, 63.59 1.51 M12.13 58.25 C23.56 48.01, 32.82 36.62, 61 1.69 M16.33 57.08 C31.91 44.57, 43 30.93, 60.44 6.77 M19.23 58.79 C28.48 44.39, 40.46 32.22, 62.7 8.01 M22.38 57 C36.88 41.09, 53.86 23.08, 60.82 15.56 M22.61 58.15 C34.06 46.2, 45.57 33.37, 61.18 13.71 M27.82 59.46 C36.56 48.55, 47.29 39.56, 63.5 21.54 M27.97 59.12 C37.29 47.78, 46.11 37.39, 61.6 20.19 M33.01 60.4 C38.89 52.45, 44.71 45.41, 62.97 27.32 M32.95 59.23 C44.46 47.09, 55.98 35, 61.49 26.2 M37.62 60.44 C48.1 51.82, 52.63 42.14, 62.17 33.07 M38.7 59.58 C44.66 50.74, 51.33 45.17, 62.35 32.6 M42.81 57.05 C48.55 52.13, 50.63 48.48, 62.67 36.66 M44.86 59.12 C48.69 55.16, 51.2 50, 62.57 38.66 M49.42 60.55 C53.45 56.65, 54.07 53.36, 62.75 45.73 M48.54 59.01 C53.94 54.83, 58.64 50.04, 62.41 44.44 M54.83 58.88 C58.78 55.39, 60.18 52.92, 62.36 50.44 M55.41 59 C57.12 57.06, 58.59 54.85, 61.96 49.81" stroke="#fab005" stroke-width="0.5" fill="none"></path><path d="M-1.87 1.43 C19.02 0.71, 37.67 1.97, 61.75 0.72 M-0.25 0.83 C17.36 0.26, 33.94 0.32, 59.05 0.66 M59.48 0.1 C58.03 12.1, 59.39 24.6, 59.35 58.33 M59.63 -0.28 C61.05 17.38, 60.79 35.79, 60.2 56.56 M58.78 55.82 C41.78 55.69, 22.73 56.88, 1.48 58.56 M59.22 56.98 C36.4 55.66, 12.24 56.7, -0.28 56.12 M1.63 58.18 C1.55 37.24, -2.01 14.72, 0.76 0.39 M0.79 55.9 C-0.73 45.63, 0.73 32.78, 0.33 -0.13" stroke="#000000" stroke-width="1" fill="none"></path></g><g transform="translate(269.39991337890615 206.59993321533204) rotate(0 0.00004999999998744897 0.00004999999998744897)" stroke="none"><path fill="#000000" d="M 1.57,-1.57 Q 1.57,-1.57 1.77,-1.27 1.98,-0.98 2.09,-0.64 2.20,-0.29 2.19,0.05 2.18,0.41 2.05,0.75 1.93,1.09 1.70,1.37 1.48,1.65 1.18,1.84 0.87,2.04 0.52,2.12 0.18,2.21 -0.17,2.18 -0.53,2.15 -0.86,2.01 -1.19,1.87 -1.46,1.63 -1.73,1.39 -1.90,1.07 -2.08,0.76 -2.15,0.41 -2.21,0.05 -2.17,-0.29 -2.12,-0.65 -1.96,-0.97 -1.80,-1.29 -1.54,-1.54 -1.29,-1.80 -0.97,-1.96 -0.65,-2.12 -0.29,-2.17 0.06,-2.21 0.41,-2.15 0.76,-2.08 1.07,-1.90 1.39,-1.73 1.63,-1.46 1.87,-1.19 2.01,-0.86 2.15,-0.53 2.18,-0.17 2.21,0.18 2.12,0.52 2.03,0.87 1.84,1.18 1.65,1.48 1.37,1.70 1.09,1.93 0.75,2.05 0.41,2.18 0.05,2.19 -0.30,2.20 -0.64,2.09 -0.98,1.98 -1.27,1.77 -1.57,1.56 -1.57,1.57 -1.57,1.57 -1.73,1.35 -1.90,1.14 -2.01,0.90 -2.12,0.66 -2.16,0.39 -2.21,0.13 -2.20,-0.13 -2.18,-0.40 -2.10,-0.65 -2.02,-0.91 -1.88,-1.14 -1.74,-1.36 -1.55,-1.55 -1.36,-1.74 -1.14,-1.88 -0.91,-2.02 -0.65,-2.10 -0.40,-2.18 -0.13,-2.20 0.13,-2.21 0.39,-2.16 0.66,-2.12 0.90,-2.01 1.14,-1.90 1.35,-1.73 1.57,-1.57 1.57,-1.57 L 1.57,-1.57 Z"></path></g><g transform="translate(272.5999255859374 197.79993016357423) rotate(0 0.00004999999998744897 0.00004999999998744897)" stroke="none"><path fill="#000000" d="M 1.57,-1.57 Q 1.57,-1.57 1.77,-1.27 1.98,-0.98 2.09,-0.64 2.20,-0.29 2.19,0.05 2.18,0.41 2.05,0.75 1.93,1.09 1.70,1.37 1.48,1.65 1.18,1.84 0.87,2.04 0.52,2.12 0.18,2.21 -0.17,2.18 -0.53,2.15 -0.86,2.01 -1.19,1.87 -1.46,1.63 -1.73,1.39 -1.90,1.07 -2.08,0.76 -2.15,0.41 -2.21,0.05 -2.17,-0.29 -2.12,-0.65 -1.96,-0.97 -1.80,-1.29 -1.54,-1.54 -1.29,-1.80 -0.97,-1.96 -0.65,-2.12 -0.29,-2.17 0.06,-2.21 0.41,-2.15 0.76,-2.08 1.07,-1.90 1.39,-1.73 1.63,-1.46 1.87,-1.19 2.01,-0.86 2.15,-0.53 2.18,-0.17 2.21,0.18 2.12,0.52 2.03,0.87 1.84,1.18 1.65,1.48 1.37,1.70 1.09,1.93 0.75,2.05 0.41,2.18 0.05,2.19 -0.30,2.20 -0.64,2.09 -0.98,1.98 -1.27,1.77 -1.57,1.56 -1.57,1.57 -1.57,1.57 -1.73,1.35 -1.90,1.14 -2.01,0.90 -2.12,0.66 -2.16,0.39 -2.21,0.13 -2.20,-0.13 -2.18,-0.40 -2.10,-0.65 -2.02,-0.91 -1.88,-1.14 -1.74,-1.36 -1.55,-1.55 -1.36,-1.74 -1.14,-1.88 -0.91,-2.02 -0.65,-2.10 -0.40,-2.18 -0.13,-2.20 0.13,-2.21 0.39,-2.16 0.66,-2.12 0.90,-2.01 1.14,-1.90 1.35,-1.73 1.57,-1.57 1.57,-1.57 L 1.57,-1.57 Z"></path></g><g transform="translate(284.5999255859374 202.59993321533204) rotate(0 0.00004999999998744897 0.00004999999998744897)" stroke="none"><path fill="#000000" d="M 1.57,-1.57 Q 1.57,-1.57 1.77,-1.27 1.98,-0.98 2.09,-0.64 2.20,-0.29 2.19,0.05 2.18,0.41 2.05,0.75 1.93,1.09 1.70,1.37 1.48,1.65 1.18,1.84 0.87,2.04 0.52,2.12 0.18,2.21 -0.17,2.18 -0.53,2.15 -0.86,2.01 -1.19,1.87 -1.46,1.63 -1.73,1.39 -1.90,1.07 -2.08,0.76 -2.15,0.41 -2.21,0.05 -2.17,-0.29 -2.12,-0.65 -1.96,-0.97 -1.80,-1.29 -1.54,-1.54 -1.29,-1.80 -0.97,-1.96 -0.65,-2.12 -0.29,-2.17 0.06,-2.21 0.41,-2.15 0.76,-2.08 1.07,-1.90 1.39,-1.73 1.63,-1.46 1.87,-1.19 2.01,-0.86 2.15,-0.53 2.18,-0.17 2.21,0.18 2.12,0.52 2.03,0.87 1.84,1.18 1.65,1.48 1.37,1.70 1.09,1.93 0.75,2.05 0.41,2.18 0.05,2.19 -0.30,2.20 -0.64,2.09 -0.98,1.98 -1.27,1.77 -1.57,1.56 -1.57,1.57 -1.57,1.57 -1.73,1.35 -1.90,1.14 -2.01,0.90 -2.12,0.66 -2.16,0.39 -2.21,0.13 -2.20,-0.13 -2.18,-0.40 -2.10,-0.65 -2.02,-0.91 -1.88,-1.14 -1.74,-1.36 -1.55,-1.55 -1.36,-1.74 -1.14,-1.88 -0.91,-2.02 -0.65,-2.10 -0.40,-2.18 -0.13,-2.20 0.13,-2.21 0.39,-2.16 0.66,-2.12 0.90,-2.01 1.14,-1.90 1.35,-1.73 1.57,-1.57 1.57,-1.57 L 1.57,-1.57 Z"></path></g><g transform="translate(286.1999011718749 184.1999240600586) rotate(0 0.00004999999998744897 0.00004999999998744897)" stroke="none"><path fill="#000000" d="M 1.57,-1.57 Q 1.57,-1.57 1.77,-1.27 1.98,-0.98 2.09,-0.64 2.20,-0.29 2.19,0.05 2.18,0.41 2.05,0.75 1.93,1.09 1.70,1.37 1.48,1.65 1.18,1.84 0.87,2.04 0.52,2.12 0.18,2.21 -0.17,2.18 -0.53,2.15 -0.86,2.01 -1.19,1.87 -1.46,1.63 -1.73,1.39 -1.90,1.07 -2.08,0.76 -2.15,0.41 -2.21,0.05 -2.17,-0.29 -2.12,-0.65 -1.96,-0.97 -1.80,-1.29 -1.54,-1.54 -1.29,-1.80 -0.97,-1.96 -0.65,-2.12 -0.29,-2.17 0.06,-2.21 0.41,-2.15 0.76,-2.08 1.07,-1.90 1.39,-1.73 1.63,-1.46 1.87,-1.19 2.01,-0.86 2.15,-0.53 2.18,-0.17 2.21,0.18 2.12,0.52 2.03,0.87 1.84,1.18 1.65,1.48 1.37,1.70 1.09,1.93 0.75,2.05 0.41,2.18 0.05,2.19 -0.30,2.20 -0.64,2.09 -0.98,1.98 -1.27,1.77 -1.57,1.56 -1.57,1.57 -1.57,1.57 -1.73,1.35 -1.90,1.14 -2.01,0.90 -2.12,0.66 -2.16,0.39 -2.21,0.13 -2.20,-0.13 -2.18,-0.40 -2.10,-0.65 -2.02,-0.91 -1.88,-1.14 -1.74,-1.36 -1.55,-1.55 -1.36,-1.74 -1.14,-1.88 -0.91,-2.02 -0.65,-2.10 -0.40,-2.18 -0.13,-2.20 0.13,-2.21 0.39,-2.16 0.66,-2.12 0.90,-2.01 1.14,-1.90 1.35,-1.73 1.57,-1.57 1.57,-1.57 L 1.57,-1.57 Z"></path></g><g transform="translate(292.5999255859374 191.39993626708986) rotate(0 0.00004999999998744897 0.00004999999998744897)" stroke="none"><path fill="#000000" d="M 1.57,-1.57 Q 1.57,-1.57 1.77,-1.27 1.98,-0.98 2.09,-0.64 2.20,-0.29 2.19,0.05 2.18,0.41 2.05,0.75 1.93,1.09 1.70,1.37 1.48,1.65 1.18,1.84 0.87,2.04 0.52,2.12 0.18,2.21 -0.17,2.18 -0.53,2.15 -0.86,2.01 -1.19,1.87 -1.46,1.63 -1.73,1.39 -1.90,1.07 -2.08,0.76 -2.15,0.41 -2.21,0.05 -2.17,-0.29 -2.12,-0.65 -1.96,-0.97 -1.80,-1.29 -1.54,-1.54 -1.29,-1.80 -0.97,-1.96 -0.65,-2.12 -0.29,-2.17 0.06,-2.21 0.41,-2.15 0.76,-2.08 1.07,-1.90 1.39,-1.73 1.63,-1.46 1.87,-1.19 2.01,-0.86 2.15,-0.53 2.18,-0.17 2.21,0.18 2.12,0.52 2.03,0.87 1.84,1.18 1.65,1.48 1.37,1.70 1.09,1.93 0.75,2.05 0.41,2.18 0.05,2.19 -0.30,2.20 -0.64,2.09 -0.98,1.98 -1.27,1.77 -1.57,1.56 -1.57,1.57 -1.57,1.57 -1.73,1.35 -1.90,1.14 -2.01,0.90 -2.12,0.66 -2.16,0.39 -2.21,0.13 -2.20,-0.13 -2.18,-0.40 -2.10,-0.65 -2.02,-0.91 -1.88,-1.14 -1.74,-1.36 -1.55,-1.55 -1.36,-1.74 -1.14,-1.88 -0.91,-2.02 -0.65,-2.10 -0.40,-2.18 -0.13,-2.20 0.13,-2.21 0.39,-2.16 0.66,-2.12 0.90,-2.01 1.14,-1.90 1.35,-1.73 1.57,-1.57 1.57,-1.57 L 1.57,-1.57 Z"></path></g><g transform="translate(303.7998767578124 174.59993321533204) rotate(0 0.00004999999998744897 0.00004999999998744897)" stroke="none"><path fill="#000000" d="M 1.57,-1.57 Q 1.57,-1.57 1.77,-1.27 1.98,-0.98 2.09,-0.64 2.20,-0.29 2.19,0.05 2.18,0.41 2.05,0.75 1.93,1.09 1.70,1.37 1.48,1.65 1.18,1.84 0.87,2.04 0.52,2.12 0.18,2.21 -0.17,2.18 -0.53,2.15 -0.86,2.01 -1.19,1.87 -1.46,1.63 -1.73,1.39 -1.90,1.07 -2.08,0.76 -2.15,0.41 -2.21,0.05 -2.17,-0.29 -2.12,-0.65 -1.96,-0.97 -1.80,-1.29 -1.54,-1.54 -1.29,-1.80 -0.97,-1.96 -0.65,-2.12 -0.29,-2.17 0.06,-2.21 0.41,-2.15 0.76,-2.08 1.07,-1.90 1.39,-1.73 1.63,-1.46 1.87,-1.19 2.01,-0.86 2.15,-0.53 2.18,-0.17 2.21,0.18 2.12,0.52 2.03,0.87 1.84,1.18 1.65,1.48 1.37,1.70 1.09,1.93 0.75,2.05 0.41,2.18 0.05,2.19 -0.30,2.20 -0.64,2.09 -0.98,1.98 -1.27,1.77 -1.57,1.56 -1.57,1.57 -1.57,1.57 -1.73,1.35 -1.90,1.14 -2.01,0.90 -2.12,0.66 -2.16,0.39 -2.21,0.13 -2.20,-0.13 -2.18,-0.40 -2.10,-0.65 -2.02,-0.91 -1.88,-1.14 -1.74,-1.36 -1.55,-1.55 -1.36,-1.74 -1.14,-1.88 -0.91,-2.02 -0.65,-2.10 -0.40,-2.18 -0.13,-2.20 0.13,-2.21 0.39,-2.16 0.66,-2.12 0.90,-2.01 1.14,-1.90 1.35,-1.73 1.57,-1.57 1.57,-1.57 L 1.57,-1.57 Z"></path></g><g transform="translate(305.39991337890615 164.1999240600586) rotate(0 0.00004999999998744897 0.00004999999998744897)" stroke="none"><path fill="#000000" d="M 1.57,-1.57 Q 1.57,-1.57 1.77,-1.27 1.98,-0.98 2.09,-0.64 2.20,-0.29 2.19,0.05 2.18,0.41 2.05,0.75 1.93,1.09 1.70,1.37 1.48,1.65 1.18,1.84 0.87,2.04 0.52,2.12 0.18,2.21 -0.17,2.18 -0.53,2.15 -0.86,2.01 -1.19,1.87 -1.46,1.63 -1.73,1.39 -1.90,1.07 -2.08,0.76 -2.15,0.41 -2.21,0.05 -2.17,-0.29 -2.12,-0.65 -1.96,-0.97 -1.80,-1.29 -1.54,-1.54 -1.29,-1.80 -0.97,-1.96 -0.65,-2.12 -0.29,-2.17 0.06,-2.21 0.41,-2.15 0.76,-2.08 1.07,-1.90 1.39,-1.73 1.63,-1.46 1.87,-1.19 2.01,-0.86 2.15,-0.53 2.18,-0.17 2.21,0.18 2.12,0.52 2.03,0.87 1.84,1.18 1.65,1.48 1.37,1.70 1.09,1.93 0.75,2.05 0.41,2.18 0.05,2.19 -0.30,2.20 -0.64,2.09 -0.98,1.98 -1.27,1.77 -1.57,1.56 -1.57,1.57 -1.57,1.57 -1.73,1.35 -1.90,1.14 -2.01,0.90 -2.12,0.66 -2.16,0.39 -2.21,0.13 -2.20,-0.13 -2.18,-0.40 -2.10,-0.65 -2.02,-0.91 -1.88,-1.14 -1.74,-1.36 -1.55,-1.55 -1.36,-1.74 -1.14,-1.88 -0.91,-2.02 -0.65,-2.10 -0.40,-2.18 -0.13,-2.20 0.13,-2.21 0.39,-2.16 0.66,-2.12 0.90,-2.01 1.14,-1.90 1.35,-1.73 1.57,-1.57 1.57,-1.57 L 1.57,-1.57 Z"></path></g><g transform="translate(299.7998767578124 187.3998752319336) rotate(0 0.00004999999998744897 0.00004999999998744897)" stroke="none"><path fill="#000000" d="M 1.57,-1.57 Q 1.57,-1.57 1.77,-1.27 1.98,-0.98 2.09,-0.64 2.20,-0.29 2.19,0.05 2.18,0.41 2.05,0.75 1.93,1.09 1.70,1.37 1.48,1.65 1.18,1.84 0.87,2.04 0.52,2.12 0.18,2.21 -0.17,2.18 -0.53,2.15 -0.86,2.01 -1.19,1.87 -1.46,1.63 -1.73,1.39 -1.90,1.07 -2.08,0.76 -2.15,0.41 -2.21,0.05 -2.17,-0.29 -2.12,-0.65 -1.96,-0.97 -1.80,-1.29 -1.54,-1.54 -1.29,-1.80 -0.97,-1.96 -0.65,-2.12 -0.29,-2.17 0.06,-2.21 0.41,-2.15 0.76,-2.08 1.07,-1.90 1.39,-1.73 1.63,-1.46 1.87,-1.19 2.01,-0.86 2.15,-0.53 2.18,-0.17 2.21,0.18 2.12,0.52 2.03,0.87 1.84,1.18 1.65,1.48 1.37,1.70 1.09,1.93 0.75,2.05 0.41,2.18 0.05,2.19 -0.30,2.20 -0.64,2.09 -0.98,1.98 -1.27,1.77 -1.57,1.56 -1.57,1.57 -1.57,1.57 -1.73,1.35 -1.90,1.14 -2.01,0.90 -2.12,0.66 -2.16,0.39 -2.21,0.13 -2.20,-0.13 -2.18,-0.40 -2.10,-0.65 -2.02,-0.91 -1.88,-1.14 -1.74,-1.36 -1.55,-1.55 -1.36,-1.74 -1.14,-1.88 -0.91,-2.02 -0.65,-2.10 -0.40,-2.18 -0.13,-2.20 0.13,-2.21 0.39,-2.16 0.66,-2.12 0.90,-2.01 1.14,-1.90 1.35,-1.73 1.57,-1.57 1.57,-1.57 L 1.57,-1.57 Z"></path></g><g transform="translate(294.1999011718749 176.99995762939454) rotate(0 0.00004999999998744897 0.00004999999998744897)" stroke="none"><path fill="#000000" d="M 1.57,-1.57 Q 1.57,-1.57 1.77,-1.27 1.98,-0.98 2.09,-0.64 2.20,-0.29 2.19,0.05 2.18,0.41 2.05,0.75 1.93,1.09 1.70,1.37 1.48,1.65 1.18,1.84 0.87,2.04 0.52,2.12 0.18,2.21 -0.17,2.18 -0.53,2.15 -0.86,2.01 -1.19,1.87 -1.46,1.63 -1.73,1.39 -1.90,1.07 -2.08,0.76 -2.15,0.41 -2.21,0.05 -2.17,-0.29 -2.12,-0.65 -1.96,-0.97 -1.80,-1.29 -1.54,-1.54 -1.29,-1.80 -0.97,-1.96 -0.65,-2.12 -0.29,-2.17 0.06,-2.21 0.41,-2.15 0.76,-2.08 1.07,-1.90 1.39,-1.73 1.63,-1.46 1.87,-1.19 2.01,-0.86 2.15,-0.53 2.18,-0.17 2.21,0.18 2.12,0.52 2.03,0.87 1.84,1.18 1.65,1.48 1.37,1.70 1.09,1.93 0.75,2.05 0.41,2.18 0.05,2.19 -0.30,2.20 -0.64,2.09 -0.98,1.98 -1.27,1.77 -1.57,1.56 -1.57,1.57 -1.57,1.57 -1.73,1.35 -1.90,1.14 -2.01,0.90 -2.12,0.66 -2.16,0.39 -2.21,0.13 -2.20,-0.13 -2.18,-0.40 -2.10,-0.65 -2.02,-0.91 -1.88,-1.14 -1.74,-1.36 -1.55,-1.55 -1.36,-1.74 -1.14,-1.88 -0.91,-2.02 -0.65,-2.10 -0.40,-2.18 -0.13,-2.20 0.13,-2.21 0.39,-2.16 0.66,-2.12 0.90,-2.01 1.14,-1.90 1.35,-1.73 1.57,-1.57 1.57,-1.57 L 1.57,-1.57 Z"></path></g><g stroke-opacity="0.8" fill-opacity="0.8" transform="translate(172.40005493164062 94.19998168945312) rotate(0 33 20)"><text x="0" y="14" font-family="Virgil, Segoe UI Emoji" font-size="16px" fill="#000000" text-anchor="start" style="white-space: pre;" direction="ltr">convert </text><text x="0" y="34" font-family="Virgil, Segoe UI Emoji" font-size="16px" fill="#000000" text-anchor="start" style="white-space: pre;" direction="ltr">to json</text></g><g stroke-opacity="0.3" fill-opacity="0.3" stroke-linecap="round" transform="translate(415.1999969482422 145.60000610351562) rotate(0 143.1999969482422 37.20002746582031)"><path d="M0 0 C0 0, 0 0, 0 0 M0 0 C0 0, 0 0, 0 0 M0.4 6.24 C0.47 4.54, 3.16 2.51, 4.26 0.85 M-0.47 6.14 C1.25 4.61, 3.17 2.48, 4.71 0.24 M1.22 10.84 C4.28 7.75, 5.04 3.51, 11.12 0.07 M-0.07 12.56 C2.13 9.31, 5.08 6.72, 10.85 -0.3 M-0.36 17.27 C7.09 9.86, 13.2 5.48, 16.5 0.57 M-0.34 17.64 C5.52 12.54, 10.16 5.64, 15.97 -0.26 M-0.78 24.21 C6.84 16.8, 10.68 11.48, 22.39 -0.83 M0.23 24.1 C8.88 14.16, 15.59 5.9, 20.68 -0.23 M-1.67 29.79 C8.08 17.47, 20.53 6.03, 27.9 1.59 M0.27 30.15 C9.3 18.26, 20 7.68, 25.78 0.14 M0.24 35.62 C11.59 22.48, 25.22 9.08, 30.78 1.1 M0.09 36.06 C7.99 26.65, 17.84 16.38, 30.89 -0.85 M1.29 40.95 C8.41 33.71, 15.78 23.6, 36.04 0.72 M-0.23 41.53 C8.96 32.72, 17.05 24.6, 37.31 -0.05 M-1.2 49.04 C15.35 33.57, 29.5 14.42, 43.19 -0.66 M-0.78 48.87 C14.63 31.39, 29.01 13.39, 43.33 -0.51 M1.54 53.97 C9.92 42.84, 21.5 28.4, 46.78 1.83 M0.84 54.64 C11.95 41.89, 24.17 26.77, 47.04 -0.55 M-1.64 62.86 C16.05 43.61, 31.92 22.27, 51.59 1.17 M0.33 60.68 C17.59 40.57, 34.45 21.42, 53.67 -0.87 M0.64 66.63 C17.41 44.38, 36.31 22.68, 57.18 0.59 M-0.64 67.69 C21.07 42.8, 42.67 18.61, 58.36 0.5 M-1.78 74.49 C19.5 52.22, 38.07 32.91, 65.11 -0.32 M-0.34 72.5 C22.81 46.82, 44.3 21.93, 63.51 -1.01 M1.91 77.24 C20.78 54.88, 40.05 35.73, 67.48 0.5 M1.74 76.19 C18.3 56.63, 37.44 36.83, 69.56 0.56 M8.09 76.9 C25.17 57.54, 42.56 34.17, 74.1 1.75 M7.62 76.6 C26.48 54.19, 47.12 33.74, 74.34 0.57 M14.55 77.15 C34.19 49.29, 55.03 24.75, 81.11 0.87 M12.95 75.49 C36.59 51.21, 58.89 24.25, 79.84 0.71 M17.71 75.65 C33.99 60.45, 49.72 39.99, 86.08 0.12 M18.33 75.71 C42.98 47.78, 69.61 16.85, 85.56 -0.02 M24.44 77.89 C39.08 57.04, 57.03 39.43, 88.68 0.8 M23.38 75.88 C41.73 56.95, 58.72 38.23, 89.31 -0.41 M28.67 75.39 C54.56 48.34, 77.84 22.7, 93.76 1.3 M29.5 77.37 C45.15 58.7, 61.09 39.47, 96.49 -0.09 M34.54 75.74 C51.75 53.15, 72.64 34.59, 100 -0.76 M35.23 77.18 C53.97 54, 72.94 31.88, 100.97 -0.56 M41.02 76.81 C53.45 59.33, 67.48 43.35, 107.03 1.62 M39.02 76.95 C52.61 59.99, 66.29 45.69, 106.34 -0.33 M45.02 76.78 C69.38 48.14, 90.86 26.08, 112.05 -1.07 M44.58 75.82 C60.52 59.57, 73.73 41.56, 110.75 0.1 M50.01 76.38 C71.44 48.74, 93.47 26.19, 116.32 0 M49.67 77.42 C63.95 61, 76.31 44.91, 115.57 -0.11 M57.19 76.91 C71.52 58.02, 89.81 37.66, 121.03 -1.58 M55.43 76.79 C74.22 55.08, 92.29 33.84, 121.48 -0.98 M62.06 78.43 C76.72 55.32, 97.22 33.77, 127.23 -1.12 M61.17 77.33 C83.16 51.28, 103.65 27.14, 126.53 -0.46 M65.58 77.84 C89.14 49.34, 113.51 24.14, 134.29 0.08 M65.68 75.71 C87.06 51.1, 109.44 27.39, 132.87 -0.8 M70.79 75.07 C95.83 48.49, 120.53 21.43, 136.54 0.8 M72.1 76.84 C96.87 46.67, 124.12 16.43, 137.49 0.45 M77.91 75.1 C92.77 58.55, 104.56 42.39, 142.38 -1.92 M77.15 76.78 C98.71 53.53, 118.59 28.7, 143.58 -0.72 M81 78.22 C103.79 51.8, 123.45 26.93, 146.92 1.34 M82 75.69 C97.22 62.17, 109.47 45.94, 147.3 0.28 M86.4 78.78 C111.95 49.26, 133.82 22.21, 155.06 -1.56 M86.89 77.53 C102.95 58.86, 118.38 39.12, 153.14 -0.53 M92.68 75.64 C110.23 56.27, 128.55 31.71, 158.19 1.89 M93.26 77.22 C114.53 52.45, 136.98 27.59, 158.69 -0.69 M98.47 78.52 C120.75 51.48, 145.7 23.98, 165.24 -1.06 M97.83 75.86 C123.16 46.51, 146.81 18.63, 164 -0.42 M105.01 74.87 C126.44 52.13, 149.4 27.17, 171.37 1.68 M103.23 76.37 C121.23 55.67, 138.03 37.17, 170.33 0.38 M108.73 76.03 C125.46 56.54, 144.02 33.18, 177.05 1.21 M108.85 76.49 C122.91 58.37, 138.14 40.98, 175.52 -0.99 M112.37 75.29 C141.03 45.5, 165.05 18.52, 180.69 1.73 M114.13 75.66 C132.49 54.3, 150.11 31.83, 180.77 0.95 M117.63 78.09 C140.91 50.72, 161.07 29.51, 185.78 -1.32 M119.38 76 C144.42 46.1, 170.97 17.37, 185.96 0.75 M124.29 76.07 C144.26 52.37, 165.55 27.56, 189.52 0.87 M125.09 77.21 C139.31 58.61, 154.34 39.17, 190.48 1.05 M130.83 77.28 C148.75 54.69, 169.21 32.81, 197.93 0.58 M128.76 77.55 C148.24 53.7, 168.88 32.18, 196.49 -0.6 M133.53 76.22 C161 45.52, 187.46 17.14, 202.47 -0.25 M134.17 76.74 C155.45 52.34, 175.38 29.81, 201.82 -0.68 M139.15 76.01 C166.48 47.94, 190.16 17.38, 207.18 -0.01 M140.24 76.91 C155.71 60.23, 170.77 41.65, 207.19 -0.87 M144.01 74.53 C165.05 50.74, 185.9 27.52, 213.3 0.83 M146.31 75.55 C163.43 55.68, 178.48 37.45, 211.08 0.99 M150.63 78.49 C167.17 61.05, 181.09 41.84, 218.4 -2.24 M150.97 76.43 C174.98 49.42, 199.92 20.54, 217.03 -0.27 M154.85 77.62 C174.45 53.96, 197.37 32.12, 220.97 0.4 M155.36 76.55 C180.83 47.04, 206 18.34, 222.45 -0.12 M162.47 74.74 C184.83 51.9, 205.72 25.54, 227.63 -1.42 M162 77.06 C180.68 54.49, 200.94 29.72, 227.91 0.56 M168.35 75.93 C184.51 58.92, 198.45 39.35, 233.64 0.53 M166.09 76.23 C190.29 48.54, 213.92 20.3, 234 0.42 M173.06 76.6 C195.92 51.19, 219.1 24.92, 237.46 -0.31 M172.32 76.35 C194.18 51.35, 216.07 27.23, 237.95 1.35 M178 75.69 C202.05 48.74, 221.22 25.24, 244.62 1.13 M178.17 76.68 C192.68 58.42, 207.27 40.84, 243.74 -0.38 M182 77.72 C204.95 50.97, 227.91 21.2, 247.63 -0.11 M182.78 76.42 C209.35 46.62, 234.85 16.34, 248.18 1.14 M188.49 74.97 C203.83 55.54, 221.22 39.25, 256.45 -0.1 M188.18 75.58 C214.22 47.73, 239.23 17.94, 253.57 -0.93 M194.06 77.56 C218.4 46.98, 242.75 18.53, 259.11 0.06 M194.16 76.01 C210.86 55.48, 226.78 35.23, 258.53 0.83 M199.67 75.62 C223.69 45.73, 249.52 14.9, 264.84 0.38 M199.58 76.22 C220.82 49.81, 243.97 22.89, 265.3 -1.02 M203.19 77.4 C221.7 53.61, 244.17 33.74, 268.7 0.12 M203.15 76.44 C216.34 59.71, 231.96 44.45, 270.54 0.19 M209.95 76.1 C235.72 46.45, 258.04 17.81, 274.69 -0.11 M208.12 76.21 C226.58 57.45, 242.07 38.62, 276.65 0.14 M212.55 76.31 C233.53 54.98, 251.22 33.27, 280.39 -0.19 M214.35 75.63 C237.28 49.71, 260 22.86, 280.6 0.53 M218.87 76.37 C245.57 46.2, 274.67 16.8, 288.07 1.59 M220.4 76.52 C244.01 48.35, 267.7 20.35, 287.23 -0.06 M226.47 75.21 C239.66 60.48, 255.08 42.94, 287.38 0.96 M224.23 76.1 C240.58 58.78, 256.65 41.02, 290.08 3.07 M231.22 78.51 C246.64 60.59, 260.48 42.63, 288.39 7.5 M229.97 75.95 C247.72 56.73, 265.47 36.07, 288.7 9.41 M234.47 76.8 C250.1 56.78, 266.56 39.82, 289.49 14.49 M235.22 76.94 C252.71 56.56, 270.97 35.81, 288.65 13.87 M239.61 75.62 C256.4 56.76, 271.84 40.24, 289.36 22.35 M239.92 76.16 C253.17 61.78, 265.84 47.5, 289.75 21.09 M247.25 77.61 C262.31 59.7, 273.61 42.92, 288.14 26.51 M245.61 75.85 C259.35 60.66, 271.61 46.11, 289.32 28 M251.84 76.64 C260.09 68.47, 267.15 58, 291.25 31.72 M252.27 76.38 C266.79 60.06, 280.3 42.98, 290.33 33.12 M256.73 75.97 C265.83 66.41, 273.64 54.12, 289.38 38.5 M257.63 77.13 C267.34 65.62, 277.04 53.24, 289.45 39.67 M262.9 78.32 C268.39 67.01, 274.91 59.43, 288.89 45.99 M261.95 77.47 C273.05 63.89, 282.15 51.78, 289.71 45.28 M267.98 76.03 C276.42 66.45, 284.22 56.49, 288.49 50.04 M267.38 75.67 C274.84 67.04, 283.93 58.19, 289.32 50.93 M270.97 77.2 C276.99 72.5, 280.76 68.59, 289.66 58.14 M272.77 75.85 C277.89 71.5, 283.43 65, 288.36 58.66 M279.12 75.83 C281.93 70.05, 285.72 65.47, 288.7 63.69 M278.81 76.83 C282.03 72.72, 286.11 67.43, 288.89 62.8 M282.41 77.07 C283.7 75.04, 286.17 73.94, 288.65 69.3 M283.33 77.03 C285.76 74.1, 288.3 71.26, 288.92 70.21" stroke="#ced4da" stroke-width="0.5" fill="none"></path><path d="M-0.87 -1.12 C75.08 3.03, 149.36 0.89, 286.91 0.37 M-0.61 -0.63 C60.31 -0.14, 122.75 0.38, 286.64 0.17 M287.71 0.33 C285.57 22.62, 286.37 40.82, 286.56 74.61 M286.25 -0.58 C286.4 15.29, 286.38 31.48, 286.3 74.08 M285.09 75.88 C215.3 73.19, 141.65 74.46, -1.37 75.67 M286.81 74.44 C188.79 74.6, 91.97 75.45, -0.2 73.73 M1.32 72.42 C1.78 53.46, 0.5 30.23, -1.96 0.03 M0.47 74.85 C-1.34 50.76, -0.33 27.06, -0.25 -0.38" stroke="#000000" stroke-width="1" fill="none"></path></g><g transform="translate(498 170.3000030517578) rotate(0 61 12.5)"><text x="0" y="18" font-family="Virgil, Segoe UI Emoji" font-size="20px" fill="#000000" text-anchor="start" style="white-space: pre;" direction="ltr">Plot in Shiny</text></g><g stroke-linecap="round"><g transform="translate(159.53158093524462 87.80000305175781) rotate(0 0.039419548286105055 25.71543794565369)"><path d="M-0.44 -1.19 C-0.4 7.27, -0.82 42.44, -0.85 51.4 M1.54 0.8 C1.56 9.35, -1.05 44.33, -1.46 52.62" stroke="#000000" stroke-width="1" fill="none"></path></g><g transform="translate(159.53158093524462 87.80000305175781) rotate(0 0.039419548286105055 25.71543794565369)"><path d="M-1.76 51.42 L-7.71 39.33 L6.2 37.91 L0.27 50.95" stroke="none" stroke-width="0" fill="#000000" fill-rule="evenodd"></path><path d="M-2.95 53.43 C-3.44 50.73, -3.15 47.33, -7.39 39.29 M-1.41 52.96 C-2.62 48.47, -5.18 44.25, -7.13 39.04 M-7 38.65 C-2.54 38.22, 0.95 40.32, 5.25 38.46 M-7.12 38.42 C-2.79 38.93, 0.44 38.85, 6.23 39.15 M5.85 39.8 C3.91 45.38, -0.98 49.02, -2.62 52.69 M6.43 39.58 C3.69 44.4, -0.06 48.78, -0.95 52.86 M-1.46 52.62 C-1.46 52.62, -1.46 52.62, -1.46 52.62 M-1.46 52.62 C-1.46 52.62, -1.46 52.62, -1.46 52.62" stroke="#000000" stroke-width="1" fill="none"></path></g></g><g stroke-linecap="round"><g transform="translate(334 191.66291249799008) rotate(0 38.66768445447087 -0.9704682129615207)"><path d="M-0.44 -0.94 C12.67 -1.3, 64.65 -1.03, 77.78 -1.19 M1.52 1.19 C14.58 0.37, 64.18 -2.8, 76.93 -3.13" stroke="#000000" stroke-width="1" fill="none"></path></g><g transform="translate(334 191.66291249799008) rotate(0 38.66768445447087 -0.9704682129615207)"><path d="M78.26 -3.67 L62.04 3.28 L62.81 -7.35 L76.33 -2.27" stroke="none" stroke-width="0" fill="#000000" fill-rule="evenodd"></path><path d="M75.76 -2.9 C74.48 -0.67, 70.64 -0.64, 64.01 4.1 M76.57 -2.47 C73.63 -1.16, 71.51 0.01, 64.18 4.24 M63.7 4.85 C64.38 -0.13, 64.63 -1.8, 64.06 -8.79 M63.85 3.92 C63.46 0.97, 63.28 -2.31, 62.92 -9.32 M63.38 -9.01 C67.82 -5.8, 73.52 -5.14, 75.7 -3.98 M63.49 -8.93 C65.55 -7.91, 69.24 -6.22, 76.35 -2.48 M76.93 -3.13 C76.93 -3.13, 76.93 -3.13, 76.93 -3.13 M76.93 -3.13 C76.93 -3.13, 76.93 -3.13, 76.93 -3.13" stroke="#000000" stroke-width="1" fill="none"></path></g></g><g stroke-opacity="0.3" fill-opacity="0.3" stroke-linecap="round" transform="translate(785.0000152587891 144.79998779296875) rotate(0 121.19999694824219 37.20002746582031)"><path d="M0 0 C0 0, 0 0, 0 0 M0 0 C0 0, 0 0, 0 0 M-0.52 5.73 C0.68 4.06, 3.75 2.79, 5.34 0.13 M-0.1 6.59 C0.77 5.13, 2.06 4.22, 4.73 -0.02 M-0.38 13.61 C2.83 8.1, 7.46 4.97, 11.92 0.66 M-0.09 12.62 C4.52 7.16, 7.92 3.84, 10.25 0.74 M-0.78 18.43 C5.22 14.36, 8.11 7.93, 14.69 -1.59 M0.3 17.83 C3.92 14.65, 5.93 10.29, 16.26 0.84 M2.07 23.35 C5.8 20.35, 8.04 14.69, 19.92 -0.89 M0.75 24.67 C9.13 13.79, 17.35 5.24, 21.02 -0.94 M-1.6 28.61 C9.66 21.16, 16.7 9.75, 26.1 1.16 M0.52 30.36 C7.17 21.9, 14.7 12.8, 25.39 0.43 M-0.39 35.38 C5.55 28.33, 13.2 23.82, 29.94 0.52 M-0.35 36.13 C10.95 24.62, 22.02 11.36, 32.25 -0.36 M2.06 40.59 C15.6 27.58, 29.48 8.46, 35.39 1 M0.98 42.55 C7.85 32.22, 16.59 23.44, 37.24 0.17 M-1.05 47.28 C15.29 31.33, 33.09 10.44, 40.67 0.42 M0.27 48.75 C9.33 36.3, 19.91 24.42, 42.06 -0.79 M-1.18 55.48 C12.34 39.96, 23.89 24.16, 47 0.7 M0.81 54.05 C12.58 39.93, 23.53 26.2, 47.26 0.63 M-1.86 60.34 C12.88 44.43, 25.74 29.28, 53.66 -2 M0.27 60.97 C18.84 38.28, 39.22 13.84, 53.59 -0.12 M-0.17 66.98 C20.91 45.35, 40.33 22.59, 58.61 0.86 M-0.65 66.86 C17.52 48.73, 34.12 28.18, 58.79 0.98 M1.09 72.89 C21.51 51.41, 38.85 28.5, 65.65 0.26 M-0.14 73.09 C19.4 50.83, 37.4 29.34, 62.9 -0.62 M4.01 75.29 C24.88 48.6, 48.3 20.87, 69.02 -0.15 M3.45 77.28 C19 56.82, 35.86 37.21, 69.08 0.98 M8.09 76.78 C21.34 59.09, 36.92 42.34, 72.56 -2.01 M8.38 77.7 C21.44 60.99, 35.83 43.62, 74.92 -1 M14.14 75.69 C32.01 52.82, 53.16 29.88, 78.28 1.91 M13.55 76.48 C25.92 59.81, 39.03 44.93, 79.27 0.98 M17.48 78.49 C37.99 51.62, 59.97 29.74, 85.52 -2.18 M17.92 76.79 C32.24 60.12, 45.3 43.24, 85.51 -0.34 M23.72 77.61 C44.12 54.35, 62.3 31.02, 91.59 1.06 M24.49 75.52 C46.73 49.62, 71.34 21.19, 90.42 -0.06 M29.43 77.59 C42.6 63.59, 56.81 47.82, 94.84 -1.82 M29.13 76.23 C55.2 47.04, 82.47 16.08, 95.44 -0.16 M33.28 77.22 C51.67 54.06, 73.33 35.17, 99.34 1.12 M33.91 76.04 C54.45 52.11, 77.35 26.17, 101.51 -0.6 M40.61 75.65 C65.24 48.95, 91.75 19.68, 105.99 1.3 M39.86 76.67 C63.03 48.02, 89.12 21.21, 106.37 -0.37 M46.58 74.51 C72.98 46.18, 98.29 14.03, 113.12 -0.24 M44.35 75.25 C59.18 59.97, 74.74 43.31, 111.4 -0.52 M48.83 76.07 C66.9 55.12, 83.6 37.51, 115 2 M49.86 77.37 C73.61 46.74, 99.09 19.66, 116.23 -0.52 M54.55 77.3 C78.45 50.66, 104.2 22.24, 121.71 0.42 M55.27 75.95 C81.53 47.99, 105.32 18.95, 122.87 0.93 M61.13 76.07 C83.67 52.9, 105.75 26.36, 127.06 0.65 M60.76 76.2 C82.51 52.09, 104.89 25.96, 127.8 1.15 M67.29 77.2 C83.19 56.22, 102.7 35.43, 131.06 0.4 M67.03 76.55 C81.33 58.5, 95.38 42.08, 132.61 -0.93 M69.71 74.67 C94.68 48.04, 120.73 23.29, 136.56 -0.34 M72.14 75.6 C95.44 47.83, 120.64 19.62, 136.82 0.26 M78.12 77.65 C92.33 57.52, 108.8 37.89, 144.32 -1.23 M76.87 77.04 C103.83 45.74, 128.43 16.18, 143.2 -0.19 M79.97 76.71 C98.31 60.31, 110.59 42.21, 149.73 0.55 M81.46 76.62 C107.12 48, 132.16 19.03, 148.57 -0.72 M86.86 78.63 C107.26 52.95, 131.36 24.07, 153.83 0.43 M86.32 77.77 C104.47 54.52, 123.2 34.73, 153.14 -0.34 M94.49 76.83 C111.46 53.27, 130.41 33.41, 160.02 0.61 M92.09 76.88 C118.09 46.66, 145.25 17.91, 159.27 0.28 M98.52 77.7 C116.22 57.23, 132.28 34.82, 165.11 0.1 M97.76 76.41 C111.18 61.85, 124.86 45.9, 164.83 -0.27 M105.06 75.5 C127.79 47.87, 156.26 17.39, 168.03 0.95 M103.31 76.62 C126.32 48.51, 150.84 20.27, 170.01 0.89 M107.3 78.48 C126.2 53.24, 146.15 31.13, 176.87 -1.7 M108.52 76.5 C127.15 54.01, 145.61 33.66, 174.59 -0.27 M112.62 75 C132.67 55.91, 154.69 31.87, 181.57 -1.48 M114.3 76.67 C135 52.23, 154.02 28.63, 180.81 0.36 M119.25 75.65 C136.47 54.66, 154.29 34.55, 185 1.36 M119.49 76.39 C141.84 48.23, 166.6 20.71, 186.63 -0.07 M123.33 75.4 C136.98 58.38, 152.27 44.32, 191.63 2.06 M124.15 76.44 C142.9 53.85, 162.38 31.3, 190.59 -0.45 M127.61 75.7 C148.41 57.73, 162.9 36.43, 194.59 1.45 M128.45 76.06 C149.04 55.7, 167.56 33.9, 197.07 -0.77 M136.52 74.61 C151.84 53.77, 170.55 34.07, 200.38 0.11 M135.87 75.93 C149.77 59.96, 166.17 42.88, 201.17 0.87 M140.82 76.94 C160.42 53.93, 180.57 30.16, 207.92 0.5 M140.11 77.07 C165.81 47.44, 191.93 17.81, 207.94 -0.89 M144.71 76.35 C167.39 54.72, 187.62 32.18, 213.21 1.06 M146.34 75.77 C164.67 53.28, 185.16 31.34, 211.28 0.35 M150.49 77.49 C165.62 60.06, 178.59 40.54, 216.44 -1.68 M150.07 76.57 C167.07 58.7, 183.78 40.96, 217.17 -0.36 M157.62 78.13 C181.46 47.58, 206.5 15.27, 222.65 1.07 M156.39 77.14 C179.45 51, 202.31 24.06, 222.55 -0.38 M159.42 75.27 C178.17 56.08, 197.44 35.43, 228.8 0.47 M160.85 77.29 C183.31 51.76, 203.92 26.05, 228.6 -0.52 M166.13 75.29 C187.47 52.83, 211.29 27.65, 232.45 0.15 M166.72 75.84 C186.03 54.98, 205.6 33.6, 233.55 -0.11 M173.6 76.04 C185.7 57.52, 201.51 39.98, 238.19 -0.89 M171.86 75.59 C191.65 53.35, 212.33 32.18, 237.33 0.66 M178.35 76.98 C191.33 59.5, 207.74 42.22, 244.89 -1.15 M177.97 76.25 C193.07 56.73, 211.76 37.54, 243.04 0.72 M182.22 77.34 C200.85 52.79, 222.79 29.94, 243.02 8.75 M183.43 77.4 C205.85 49.37, 228.39 23.53, 242.41 6.32 M187.53 74.17 C199.19 59.88, 211.87 48.44, 244.89 11.36 M188.64 75.36 C203.59 56.08, 220.97 38.56, 244.22 13.09 M193.64 76.54 C210.71 55.85, 227.99 34.22, 244.16 19.64 M192.79 76.23 C211.48 56.79, 227.73 36.87, 242.06 20.14 M200.13 75.63 C210.64 64.33, 219.12 54.27, 243.59 25.78 M199.19 76.74 C211.76 62.39, 222.45 49.36, 244.17 25.66 M203.41 74.83 C214.59 61.52, 226.49 49.64, 243.62 31.34 M204.08 77.22 C217.07 60.95, 228.37 46.22, 242.33 31.88 M207.16 76.69 C222.17 63.52, 232.07 47.97, 244.85 38.12 M209.29 77.31 C220.88 63.72, 230.73 51.56, 242.42 36.77 M214.28 77.2 C225.39 64.06, 232.24 52.72, 243.96 42.51 M214.34 77.08 C221.72 68.76, 225.95 62.25, 242.6 43.19 M218.75 76.26 C226.74 69.05, 233.09 62.08, 241.63 49.92 M218.51 76.32 C226.4 68.86, 231.6 62.46, 243.35 50.12 M224.16 76.46 C229.95 72.54, 232.15 66.09, 244.97 53.6 M225.52 76.11 C229.86 70.52, 235.56 65.22, 244.15 54.29 M228.28 77.29 C235.12 69.82, 240.27 65.11, 244.16 60.8 M230.33 75.88 C234.93 71.6, 239.5 66.65, 242.29 61.21 M234.88 76.83 C238.53 73.75, 240.88 71.31, 242.94 67.83 M236.13 76.29 C237.75 73.87, 239.25 71.89, 243.24 68.45" stroke="#ced4da" stroke-width="0.5" fill="none"></path><path d="M0.28 1.33 C88.29 -2.84, 175.22 -0.79, 242.93 0.19 M0 -0.17 C66.66 1.36, 135.07 -0.01, 242.58 -0.11 M241.17 -1.64 C241.6 16.91, 241.78 37.63, 243.59 74.09 M242.64 -0.77 C242.97 17.03, 242.33 36.03, 242.22 74.09 M243.38 73.82 C192.47 76.43, 140.64 75.8, 0.83 73.76 M242.5 74.35 C149.93 73.94, 58.34 72.72, -0.24 74.3 M0.18 74.09 C1.67 47.87, -1.07 19.18, -0.77 1.74 M-0.87 75.13 C1.52 46.81, 1.36 17.93, -0.34 0.38" stroke="#000000" stroke-width="1" fill="none"></path></g><g transform="translate(825.1998901367188 160.7000274658203) rotate(0 84.5 25)"><text x="0" y="17" font-family="Virgil, Segoe UI Emoji" font-size="20px" fill="#000000" text-anchor="start" style="white-space: pre;" direction="ltr">Save results to </text><text x="0" y="42" font-family="Virgil, Segoe UI Emoji" font-size="20px" fill="#000000" text-anchor="start" style="white-space: pre;" direction="ltr">database</text></g><g stroke-linecap="round"><g transform="translate(709.2000122070312 181.40000915527344) rotate(0 37.3923456634534 -0.7662539004137443)"><path d="M0.95 -0.39 C13.4 -0.4, 62.33 0.42, 74.79 0.35 M-0.01 -1.64 C12.28 -2.06, 61.26 -1.87, 73.84 -1.59" stroke="#000000" stroke-width="1" fill="none"></path></g><g transform="translate(709.2000122070312 181.40000915527344) rotate(0 37.3923456634534 -0.7662539004137443)"><path d="M75.62 -1.6 L60.72 6.52 L58.39 -6.91 L75.44 -0.82" stroke="none" stroke-width="0" fill="#000000" fill-rule="evenodd"></path><path d="M73.35 -1.6 C70.11 1.62, 64.47 2.85, 59.48 3.16 M74.17 -2.04 C71.37 -0.33, 67.46 0.62, 60.66 4.98 M61.32 4.13 C60.65 2.75, 59.03 -0.22, 59.47 -8.6 M60.48 4.97 C60.66 -0.81, 60.71 -5.19, 60.17 -8.64 M59.11 -9.48 C65.54 -5.44, 68.78 -4.35, 73.73 -0.93 M60.7 -8.17 C64.22 -6.34, 68.15 -5.04, 73.2 -1.48 M73.84 -1.59 C73.84 -1.59, 73.84 -1.59, 73.84 -1.59 M73.84 -1.59 C73.84 -1.59, 73.84 -1.59, 73.84 -1.59" stroke="#000000" stroke-width="1" fill="none"></path></g></g><g stroke-opacity="0.3" fill-opacity="0.3" stroke-linecap="round" transform="translate(393.00001525878906 314.9999694824219) rotate(0 187.19996643066418 42.80003356933594)"><path d="M0 0 C0 0, 0 0, 0 0 M0 0 C0 0, 0 0, 0 0 M-0.47 7.03 C1.83 4.97, 2.91 2.87, 5.07 0.34 M-0.01 6.04 C0.63 4.57, 2.56 3.53, 4.87 0.53 M0.08 11.3 C3.53 7.66, 6.95 4.86, 11.75 1.52 M-0.61 11.72 C1.93 9.5, 6.03 6.18, 9.95 0.3 M-1.46 16.64 C4.05 14.01, 9.58 10.47, 15.4 1.82 M-0.24 18.04 C5.01 11.89, 9.6 6.6, 15.2 0.01 M1.71 25.32 C6.36 15.7, 13.27 9.19, 20.82 -1.4 M0.79 24.42 C7.17 17, 13.68 9.4, 21.05 0.5 M-1.26 28.95 C5.65 22.8, 12.66 14.84, 24.73 -1.08 M-0.64 30.77 C6.92 23.69, 12.08 17, 26.25 -0.66 M-0.67 37.15 C8.7 25.58, 19.43 15.93, 33.65 -0.31 M-0.54 36.95 C6.64 28.97, 14.78 19.96, 31.91 -0.39 M1.62 43.82 C12.29 32.51, 22.07 19.97, 36.81 2.18 M0.19 41.95 C10.71 31.35, 19.15 20.04, 36.15 0.95 M0.13 49.44 C8.16 35.48, 19.24 23.84, 41.26 -1.83 M-0.26 49.02 C12.34 36.39, 22.67 22.55, 43.39 0.44 M0.19 56 C17.47 31.75, 36.54 13.11, 48.5 0.02 M0.17 55.41 C10.12 42.86, 20.81 30.04, 47.17 -0.4 M-1.44 61.09 C17.63 41.68, 35.31 22.88, 53.59 -1.16 M0.1 61.27 C18.36 38.21, 38.52 16.9, 53.46 -0.72 M-2.05 68.8 C14.4 52.69, 27.79 34.97, 57.81 -1.37 M-0.54 67.34 C14.53 51.52, 28.5 34.96, 57.46 0.64 M-1.13 72.06 C21.8 45.8, 45.76 18.75, 63.74 -1.67 M-0.45 72.16 C16.51 55.97, 31.28 37.18, 62.95 0.05 M-0.41 79.07 C21.91 54.37, 42.22 30.17, 67.94 2.04 M-0.88 79.26 C19.01 58.29, 36.39 36.84, 69.07 0.03 M-1.46 84.13 C21.66 59.79, 42.49 38.1, 76.02 1.07 M1.04 84.79 C28.23 52.12, 55.76 18.35, 73.64 0.23 M1.63 86.75 C31.68 56.42, 63.24 20.21, 79.31 0.1 M1.74 87.52 C31.66 55.73, 61.58 22.14, 79.97 0.31 M8.07 87.82 C29.43 61.26, 53.41 37.64, 85.93 -0.71 M9.27 87.76 C27.1 66.65, 44.43 46.9, 84.19 -1.09 M15.06 87.77 C38.57 59.95, 63.27 31.55, 89.48 0.44 M14.12 88.31 C29.39 69.17, 47.82 49.5, 90.04 0.61 M18.07 86.58 C39.5 64.56, 61.94 39.98, 96.13 1.06 M19.75 87.37 C46.5 54.04, 74.62 22.77, 96.18 -1.21 M24.93 89 C50.67 56.11, 80.76 26.57, 101.25 0.53 M24.83 88.48 C53.42 53.91, 83.79 17.2, 101.04 0.66 M30.91 86.63 C46.22 65.36, 66.57 45.17, 104.51 -1.76 M30.5 87.49 C58.01 53.83, 87.41 20.14, 106.09 0.13 M35.36 88.06 C55.82 65.44, 74.19 41.89, 110.55 -0.34 M35.23 87.44 C55.31 65.24, 76.21 42.51, 110.67 0.79 M40.82 89 C57.92 65.84, 79.85 42.79, 115.44 -0.74 M40.09 87.57 C66.5 58.23, 92.16 27.72, 116.65 -0.44 M45.66 86.39 C67.56 63.11, 87.71 40.29, 122.55 -1.11 M45.59 88.19 C72.27 58.21, 97.43 27.07, 122.52 -0.09 M51.2 88.53 C72.8 64.59, 94.25 37.93, 126.49 2.12 M50.97 87.65 C77.64 55.84, 107.27 23.63, 127.47 1.04 M54.32 89.22 C84.52 58.97, 108.46 27.67, 131.58 1.14 M55.06 87.3 C80.07 59.76, 106.81 31.66, 132.07 -0.46 M62.61 85.86 C91.04 51.71, 120.7 17.81, 136.44 -1.13 M61.53 88.38 C80.56 65.4, 100.89 41.81, 137.08 0.38 M67.01 89.6 C87.64 63.41, 107.89 38.99, 145.16 -0.89 M65.73 88.98 C84.74 67.28, 102.58 44.74, 142.74 -0.22 M72.85 87.46 C100.99 57.05, 124.88 26.26, 147.89 0.63 M72.03 86.97 C91.68 65.02, 110.69 42.09, 147.6 0.22 M76.6 88.42 C94.33 66.02, 113.8 43.93, 151.99 -0.67 M76.58 88.98 C100.07 61.23, 123.96 36.82, 153.83 -0.67 M80.87 89.6 C110.12 54.43, 138.95 22.15, 158.65 -1.67 M82.66 87.26 C101.4 64.57, 121.38 42.84, 158.03 0.83 M87.14 86.34 C102.54 72.03, 120.57 52.26, 165.99 -1.87 M87.49 88.69 C104.72 66.57, 124.22 44.75, 164.56 -0.52 M94.82 86.37 C125.41 53.59, 153.05 17.36, 169.71 -1.28 M93.52 87.66 C110.71 67.54, 127.82 47.9, 170.3 0.03 M97.88 87.87 C123.78 59.86, 144.68 32.14, 174.22 1.67 M99.26 89.07 C113.97 68.77, 129.83 51.22, 176.05 0.11 M103.37 90.42 C123.3 65.35, 144.59 44.21, 181.25 0.34 M103.94 87.94 C118.48 68.76, 134.36 52.04, 179.24 -0.75 M107.25 89.3 C134.32 61.82, 154.01 35.75, 184.98 -2.09 M109.59 88.67 C128.93 64.43, 146.97 40.6, 185.32 -0.28 M114.36 89.95 C132.34 64.7, 153.96 42.84, 192.64 1.57 M113.14 88.19 C133.83 66.47, 152.76 43.74, 190.56 -0.46 M120.86 86.76 C143.32 58.36, 169.28 30.92, 195.7 0.62 M119.08 87.65 C137.53 66.14, 155.16 45.52, 197.32 -0.63 M122.85 89.25 C142.14 70.41, 158.26 51.2, 202.43 0.59 M124.26 89.37 C147.63 60.44, 173.17 31.85, 200.91 -0.51 M131.51 88.18 C150.29 60.94, 171.5 37, 205.05 1.38 M129.24 87.75 C157.48 57.83, 184.32 27.19, 206.88 -1.28 M133.73 89.66 C152.99 66.96, 169.39 49.62, 212.36 -0.61 M135.04 88.26 C151.88 70.63, 166.96 51.04, 211.84 -0.66 M139.2 89.29 C163.8 60.98, 187.36 34.43, 216.86 1.61 M140.5 88.32 C167.15 59.53, 192.17 28.85, 216.75 0.05 M145.08 90.31 C164.37 68.41, 183.98 43.64, 223.36 -0.22 M145.08 88.26 C174.24 55.74, 202.71 21.5, 221.78 0.89 M151.1 89.66 C175.26 63.37, 196.35 33.62, 228.14 0.5 M152.17 88.28 C176.01 60.16, 198.14 31.89, 227.58 0.2 M156.18 88.17 C184.01 55.17, 211.89 23.15, 231.55 -0.63 M155.92 87.35 C183.32 57.92, 208.82 26.9, 234.1 -0.46 M161.58 88.65 C187.13 58.14, 217.36 23.6, 236.46 -0.16 M162.5 88.17 C189.92 56.17, 217.68 24.09, 237.27 -0.62 M167.5 90.02 C197.67 52.35, 227.29 20.09, 244.22 -0.4 M166.98 88.1 C190.46 62.98, 211.99 37.37, 243.07 0.29 M172.2 89.45 C198.68 55.68, 228.76 25.37, 250.52 0.96 M172.61 88.09 C197.72 60.05, 220.5 30.67, 249.61 0.12 M176.67 88.45 C203.21 59.33, 224.71 32.97, 255.88 1.71 M177.62 87.67 C196.56 65.54, 216.67 43.26, 253.84 -0.28 M183.69 87.04 C198.8 69.92, 215.22 51.03, 258.26 1.26 M182.55 87.78 C210.51 55.69, 240.31 22.45, 260.31 -0.18 M186.53 89.85 C214.75 57.81, 235.93 32.62, 264.2 -1.25 M189.07 87.83 C214.68 58.87, 241.09 29.32, 264.49 0.01 M191.99 88.23 C219.93 56.55, 248.11 24.48, 269.44 -0.8 M193.27 88.53 C216.04 64.38, 235.16 41.04, 269.64 -0.3 M197.1 86.43 C218.21 64.68, 238.76 42.42, 274.04 -0.41 M198.49 88.93 C222.12 63.76, 242.51 36.91, 276.01 -1.04 M204.21 87.65 C222.38 64.76, 243.85 45.48, 279.02 -0.94 M204.63 87.25 C229.12 59.17, 255.71 27.79, 279.78 -0.42 M209.6 88.23 C227.61 70.16, 243.44 47.36, 285.46 0.92 M208.94 87.92 C235.04 59.27, 261.34 30.1, 286.28 -0.08 M214 88.47 C240.33 59.59, 266.35 28.66, 291.15 -1.08 M214.72 89.19 C232.56 66.39, 251.02 46.27, 290.84 -0.11 M218.42 87.07 C238.33 65.37, 259.16 41.04, 297.71 -0.77 M219.39 88.35 C245.81 57.99, 273.05 27.54, 296.1 -0.14 M224.15 87.44 C249.53 61.17, 272.78 33.43, 303.18 -1.32 M224.54 88.92 C239.91 70.89, 256 53.14, 302.81 -0.37 M231.15 88.6 C254.22 62.07, 273.19 37.31, 309.2 -1.18 M230.69 88.34 C250.99 65.14, 270.87 42.32, 307.16 -0.66 M234.71 87.35 C258.68 60.41, 285 31.33, 313.61 0.06 M236.01 88.89 C252.54 69.29, 270.58 50.28, 313.58 0.41 M240.56 88.3 C260.79 62.36, 283.42 38.38, 317.56 -0.2 M241.65 88.64 C263.4 63.46, 283.18 41.07, 318.07 0.5 M245.52 90.08 C265.73 64.89, 284.54 40.93, 322.16 -1.42 M246.59 88.38 C265.56 66.51, 282.13 46.69, 322.97 0.44 M252.6 87.42 C278.9 56.2, 304.02 28.34, 327.59 -1.88 M252.93 88.56 C269.59 66.09, 288.94 45.97, 328.34 -0.89 M255.64 89.31 C281.53 60.84, 301.82 34.95, 333.73 -0.43 M256.68 88.24 C285.63 56, 314.75 22.86, 334.7 0.49 M262.43 89.07 C280.35 66.32, 302.41 41.33, 339.28 1.52 M263.12 88.02 C283.86 63.8, 303.81 40.89, 340.39 0.49 M267.33 86.53 C286.14 64.35, 307.05 42.11, 346.39 -1.81 M267.58 88.96 C288.49 62.25, 310.85 36.21, 344.38 -0.04 M274.39 86.13 C295.29 62.68, 319.76 37.64, 351.15 2.29 M272.73 87.53 C297.87 59.32, 322.74 31.33, 348.9 0.33 M277.99 87.05 C303.59 60, 326.39 31.12, 355.44 -0.6 M277.47 88.58 C293.87 70.64, 310.76 50.64, 355.54 0.83 M285.98 89.32 C301.14 65.86, 316.07 46.43, 358.88 2.31 M284.16 88.2 C304.81 65.39, 325.15 41.43, 359.39 -0.34 M288.26 87.99 C312.08 65.3, 330.73 41.79, 365.32 -2.04 M289.48 88.75 C315.1 58.6, 340.24 28.71, 365.62 -0.33 M295.93 87.17 C315.76 62.46, 338.69 34.46, 371.38 1.51 M293.72 87.73 C322.39 57.63, 350.39 25.61, 370.36 -0.67 M297.93 86.27 C323.32 64.01, 344.28 35.9, 377.02 -0.76 M299.6 88.73 C315.92 71.03, 331.22 52.15, 375.31 0.4 M304.13 86.01 C324.97 68.52, 340.77 46.07, 375.47 5.68 M305.61 88.4 C331.24 58.62, 358.57 27.89, 375.94 7.88 M309.99 86.64 C334.76 62.5, 355.53 34.2, 375.54 12.93 M310.77 87.36 C330.53 63.5, 351.53 41.35, 376 14.11 M315.67 86 C335.51 64.73, 356.22 40.72, 376.4 20.1 M315.97 87.11 C335.34 67.5, 353.65 44.83, 376.4 19.08 M322.63 89.66 C342.04 62.99, 363.09 36.5, 376.06 26.43 M320.79 89.05 C338.98 68.09, 357.75 44.93, 376 26.32 M324.81 89.08 C340.08 73.33, 354.02 55.31, 373.87 30.13 M326.82 87.34 C338 74.29, 349.05 60.96, 376.18 30.56 M333.21 87.69 C346.98 70.63, 363.92 49.64, 375.13 38.52 M332.42 87.85 C344.34 72.67, 358.73 58.22, 375.72 36.73 M338.37 87.8 C347.55 75.63, 358.46 62.24, 373.54 42.93 M337.44 87.9 C346.29 75.91, 358.66 63.34, 375.39 43.58 M342.29 88.92 C349.3 81.43, 356.96 70.91, 375.14 49.03 M341.27 87.38 C354.37 73.86, 367.47 59.14, 376.11 48.89 M346.3 90.22 C353.3 79.76, 360.45 71.31, 374.2 55.24 M346.97 87.97 C353.39 80.9, 360.43 72.96, 375.01 56.7 M353.59 89.34 C358.64 79.87, 364.71 74.68, 375.68 63.6 M351.9 88.84 C360.69 79.95, 367.94 70.83, 376.07 60.93 M357.78 88.52 C363.07 82.69, 364.82 80.8, 375.88 69.89 M358.53 87.56 C365.19 80.1, 371.08 72.55, 374.96 68.37 M362.2 88.67 C364.79 85.83, 370.02 81.63, 376.71 74.46 M363.72 87.14 C366.86 84.6, 370.14 81.39, 375.64 74.35 M368.09 88.1 C370.36 87.14, 371.31 84.58, 374.97 80.42 M368.03 88.45 C370.78 85.66, 373.22 82.1, 375.12 79.95" stroke="#ced4da" stroke-width="0.5" fill="none"></path><path d="M-1.18 1 C76.92 -2.67, 154.58 -1.69, 374.13 0.86 M-0.28 -0.4 C128.85 -1.53, 257.67 -2.22, 374.32 0.43 M374.87 -1.45 C375.67 24.95, 376.46 49.2, 376.14 83.9 M373.67 -0.31 C374.81 26.16, 374.5 51.5, 374.08 86.17 M375.11 86.26 C261.19 86.2, 149.29 86.76, -1.12 86.07 M374.41 86.15 C270.77 85.27, 167.67 84.6, 0.58 85.73 M-1.44 87.06 C-0.03 63.21, -2.21 39.24, 1.28 1.2 M-0.5 85.75 C-0.22 55.37, 0.46 26.51, -0.09 -0.28" stroke="#000000" stroke-width="1" fill="none"></path></g><g transform="translate(406 333.40000915527344) rotate(0 132.5 25)"><text x="0" y="17" font-family="Virgil, Segoe UI Emoji" font-size="20px" fill="#000000" text-anchor="start" style="white-space: pre;" direction="ltr">'You Draw It' interactivity</text><text x="0" y="42" font-family="Virgil, Segoe UI Emoji" font-size="20px" fill="#000000" text-anchor="start" style="white-space: pre;" direction="ltr">on plot with JavaScript</text></g><g stroke-linecap="round"><g transform="translate(497.5401196479463 228.97418828428675) rotate(0 0.04959629614847927 38.78691141144546)"><path d="M0.68 -0.44 C0.78 12.65, 0.34 65.16, -0.05 78.3 M-0.42 -1.72 C-0.35 11.51, -0.74 65.8, -0.54 79.3" stroke="#000000" stroke-width="1" fill="none"></path></g><g transform="translate(497.5401196479463 228.97418828428675) rotate(0 0.04959629614847927 38.78691141144546)"><path d="M-0.61 81.04 L-5.76 67.46 L7.07 67.56 L-0.62 80.73" stroke="none" stroke-width="0" fill="#000000" fill-rule="evenodd"></path><path d="M-1.09 80.4 C-3.38 75, -4.83 71.79, -6.89 65.02 M-1 79.91 C-2.64 74.68, -4.05 71.77, -6.7 65.6 M-6.99 66.21 C-1.97 65.56, 2.82 65.61, 5.51 66.3 M-7.42 65.76 C-2.35 65.54, 1.76 65.64, 5.97 66.31 M5.45 64.96 C4.3 70.05, 3.71 73.49, 0.79 80.24 M5.56 66.18 C3.17 70.54, 0.92 75.92, -0.45 78.79 M-0.54 79.3 C-0.54 79.3, -0.54 79.3, -0.54 79.3 M-0.54 79.3 C-0.54 79.3, -0.54 79.3, -0.54 79.3" stroke="#000000" stroke-width="1" fill="none"></path></g></g><g transform="translate(699.2000232421874 381.40001256103517) rotate(0 0.00004999999998744897 0.00004999999998744897)" stroke="none"><path fill="#000000" d="M 1.57,-1.57 Q 1.57,-1.57 1.77,-1.27 1.98,-0.98 2.09,-0.64 2.20,-0.29 2.19,0.05 2.18,0.41 2.05,0.75 1.93,1.09 1.70,1.37 1.48,1.65 1.18,1.84 0.87,2.04 0.52,2.12 0.18,2.21 -0.17,2.18 -0.53,2.15 -0.86,2.01 -1.19,1.87 -1.46,1.63 -1.73,1.39 -1.90,1.07 -2.08,0.76 -2.15,0.41 -2.21,0.05 -2.17,-0.29 -2.12,-0.65 -1.96,-0.97 -1.80,-1.29 -1.54,-1.54 -1.29,-1.80 -0.97,-1.96 -0.65,-2.12 -0.29,-2.17 0.06,-2.21 0.41,-2.15 0.76,-2.08 1.07,-1.90 1.39,-1.73 1.63,-1.46 1.87,-1.19 2.01,-0.86 2.15,-0.53 2.18,-0.17 2.21,0.18 2.12,0.52 2.03,0.87 1.84,1.18 1.65,1.48 1.37,1.70 1.09,1.93 0.75,2.05 0.41,2.18 0.05,2.19 -0.30,2.20 -0.64,2.09 -0.98,1.98 -1.27,1.77 -1.57,1.56 -1.57,1.57 -1.57,1.57 -1.73,1.35 -1.90,1.14 -2.01,0.90 -2.12,0.66 -2.16,0.39 -2.21,0.13 -2.20,-0.13 -2.18,-0.40 -2.10,-0.65 -2.02,-0.91 -1.88,-1.14 -1.74,-1.36 -1.55,-1.55 -1.36,-1.74 -1.14,-1.88 -0.91,-2.02 -0.65,-2.10 -0.40,-2.18 -0.13,-2.20 0.13,-2.21 0.39,-2.16 0.66,-2.12 0.90,-2.01 1.14,-1.90 1.35,-1.73 1.57,-1.57 1.57,-1.57 L 1.57,-1.57 Z"></path></g><g transform="translate(702.4000354492186 372.60000950927736) rotate(0 0.00004999999998744897 0.00004999999998744897)" stroke="none"><path fill="#000000" d="M 1.57,-1.57 Q 1.57,-1.57 1.77,-1.27 1.98,-0.98 2.09,-0.64 2.20,-0.29 2.19,0.05 2.18,0.41 2.05,0.75 1.93,1.09 1.70,1.37 1.48,1.65 1.18,1.84 0.87,2.04 0.52,2.12 0.18,2.21 -0.17,2.18 -0.53,2.15 -0.86,2.01 -1.19,1.87 -1.46,1.63 -1.73,1.39 -1.90,1.07 -2.08,0.76 -2.15,0.41 -2.21,0.05 -2.17,-0.29 -2.12,-0.65 -1.96,-0.97 -1.80,-1.29 -1.54,-1.54 -1.29,-1.80 -0.97,-1.96 -0.65,-2.12 -0.29,-2.17 0.06,-2.21 0.41,-2.15 0.76,-2.08 1.07,-1.90 1.39,-1.73 1.63,-1.46 1.87,-1.19 2.01,-0.86 2.15,-0.53 2.18,-0.17 2.21,0.18 2.12,0.52 2.03,0.87 1.84,1.18 1.65,1.48 1.37,1.70 1.09,1.93 0.75,2.05 0.41,2.18 0.05,2.19 -0.30,2.20 -0.64,2.09 -0.98,1.98 -1.27,1.77 -1.57,1.56 -1.57,1.57 -1.57,1.57 -1.73,1.35 -1.90,1.14 -2.01,0.90 -2.12,0.66 -2.16,0.39 -2.21,0.13 -2.20,-0.13 -2.18,-0.40 -2.10,-0.65 -2.02,-0.91 -1.88,-1.14 -1.74,-1.36 -1.55,-1.55 -1.36,-1.74 -1.14,-1.88 -0.91,-2.02 -0.65,-2.10 -0.40,-2.18 -0.13,-2.20 0.13,-2.21 0.39,-2.16 0.66,-2.12 0.90,-2.01 1.14,-1.90 1.35,-1.73 1.57,-1.57 1.57,-1.57 L 1.57,-1.57 Z"></path></g><g transform="translate(714.4000354492186 377.40001256103517) rotate(0 0.00004999999998744897 0.00004999999998744897)" stroke="none"><path fill="#000000" d="M 1.57,-1.57 Q 1.57,-1.57 1.77,-1.27 1.98,-0.98 2.09,-0.64 2.20,-0.29 2.19,0.05 2.18,0.41 2.05,0.75 1.93,1.09 1.70,1.37 1.48,1.65 1.18,1.84 0.87,2.04 0.52,2.12 0.18,2.21 -0.17,2.18 -0.53,2.15 -0.86,2.01 -1.19,1.87 -1.46,1.63 -1.73,1.39 -1.90,1.07 -2.08,0.76 -2.15,0.41 -2.21,0.05 -2.17,-0.29 -2.12,-0.65 -1.96,-0.97 -1.80,-1.29 -1.54,-1.54 -1.29,-1.80 -0.97,-1.96 -0.65,-2.12 -0.29,-2.17 0.06,-2.21 0.41,-2.15 0.76,-2.08 1.07,-1.90 1.39,-1.73 1.63,-1.46 1.87,-1.19 2.01,-0.86 2.15,-0.53 2.18,-0.17 2.21,0.18 2.12,0.52 2.03,0.87 1.84,1.18 1.65,1.48 1.37,1.70 1.09,1.93 0.75,2.05 0.41,2.18 0.05,2.19 -0.30,2.20 -0.64,2.09 -0.98,1.98 -1.27,1.77 -1.57,1.56 -1.57,1.57 -1.57,1.57 -1.73,1.35 -1.90,1.14 -2.01,0.90 -2.12,0.66 -2.16,0.39 -2.21,0.13 -2.20,-0.13 -2.18,-0.40 -2.10,-0.65 -2.02,-0.91 -1.88,-1.14 -1.74,-1.36 -1.55,-1.55 -1.36,-1.74 -1.14,-1.88 -0.91,-2.02 -0.65,-2.10 -0.40,-2.18 -0.13,-2.20 0.13,-2.21 0.39,-2.16 0.66,-2.12 0.90,-2.01 1.14,-1.90 1.35,-1.73 1.57,-1.57 1.57,-1.57 L 1.57,-1.57 Z"></path></g><g transform="translate(716.0000110351561 359.00000340576173) rotate(0 0.00004999999998744897 0.00004999999998744897)" stroke="none"><path fill="#000000" d="M 1.57,-1.57 Q 1.57,-1.57 1.77,-1.27 1.98,-0.98 2.09,-0.64 2.20,-0.29 2.19,0.05 2.18,0.41 2.05,0.75 1.93,1.09 1.70,1.37 1.48,1.65 1.18,1.84 0.87,2.04 0.52,2.12 0.18,2.21 -0.17,2.18 -0.53,2.15 -0.86,2.01 -1.19,1.87 -1.46,1.63 -1.73,1.39 -1.90,1.07 -2.08,0.76 -2.15,0.41 -2.21,0.05 -2.17,-0.29 -2.12,-0.65 -1.96,-0.97 -1.80,-1.29 -1.54,-1.54 -1.29,-1.80 -0.97,-1.96 -0.65,-2.12 -0.29,-2.17 0.06,-2.21 0.41,-2.15 0.76,-2.08 1.07,-1.90 1.39,-1.73 1.63,-1.46 1.87,-1.19 2.01,-0.86 2.15,-0.53 2.18,-0.17 2.21,0.18 2.12,0.52 2.03,0.87 1.84,1.18 1.65,1.48 1.37,1.70 1.09,1.93 0.75,2.05 0.41,2.18 0.05,2.19 -0.30,2.20 -0.64,2.09 -0.98,1.98 -1.27,1.77 -1.57,1.56 -1.57,1.57 -1.57,1.57 -1.73,1.35 -1.90,1.14 -2.01,0.90 -2.12,0.66 -2.16,0.39 -2.21,0.13 -2.20,-0.13 -2.18,-0.40 -2.10,-0.65 -2.02,-0.91 -1.88,-1.14 -1.74,-1.36 -1.55,-1.55 -1.36,-1.74 -1.14,-1.88 -0.91,-2.02 -0.65,-2.10 -0.40,-2.18 -0.13,-2.20 0.13,-2.21 0.39,-2.16 0.66,-2.12 0.90,-2.01 1.14,-1.90 1.35,-1.73 1.57,-1.57 1.57,-1.57 L 1.57,-1.57 Z"></path></g><g transform="translate(722.4000354492186 366.200015612793) rotate(0 0.00004999999998744897 0.00004999999998744897)" stroke="none"><path fill="#000000" d="M 1.57,-1.57 Q 1.57,-1.57 1.77,-1.27 1.98,-0.98 2.09,-0.64 2.20,-0.29 2.19,0.05 2.18,0.41 2.05,0.75 1.93,1.09 1.70,1.37 1.48,1.65 1.18,1.84 0.87,2.04 0.52,2.12 0.18,2.21 -0.17,2.18 -0.53,2.15 -0.86,2.01 -1.19,1.87 -1.46,1.63 -1.73,1.39 -1.90,1.07 -2.08,0.76 -2.15,0.41 -2.21,0.05 -2.17,-0.29 -2.12,-0.65 -1.96,-0.97 -1.80,-1.29 -1.54,-1.54 -1.29,-1.80 -0.97,-1.96 -0.65,-2.12 -0.29,-2.17 0.06,-2.21 0.41,-2.15 0.76,-2.08 1.07,-1.90 1.39,-1.73 1.63,-1.46 1.87,-1.19 2.01,-0.86 2.15,-0.53 2.18,-0.17 2.21,0.18 2.12,0.52 2.03,0.87 1.84,1.18 1.65,1.48 1.37,1.70 1.09,1.93 0.75,2.05 0.41,2.18 0.05,2.19 -0.30,2.20 -0.64,2.09 -0.98,1.98 -1.27,1.77 -1.57,1.56 -1.57,1.57 -1.57,1.57 -1.73,1.35 -1.90,1.14 -2.01,0.90 -2.12,0.66 -2.16,0.39 -2.21,0.13 -2.20,-0.13 -2.18,-0.40 -2.10,-0.65 -2.02,-0.91 -1.88,-1.14 -1.74,-1.36 -1.55,-1.55 -1.36,-1.74 -1.14,-1.88 -0.91,-2.02 -0.65,-2.10 -0.40,-2.18 -0.13,-2.20 0.13,-2.21 0.39,-2.16 0.66,-2.12 0.90,-2.01 1.14,-1.90 1.35,-1.73 1.57,-1.57 1.57,-1.57 L 1.57,-1.57 Z"></path></g><g transform="translate(733.5999866210936 349.40001256103517) rotate(0 0.00004999999998744897 0.00004999999998744897)" stroke="none"><path fill="#000000" d="M 1.57,-1.57 Q 1.57,-1.57 1.77,-1.27 1.98,-0.98 2.09,-0.64 2.20,-0.29 2.19,0.05 2.18,0.41 2.05,0.75 1.93,1.09 1.70,1.37 1.48,1.65 1.18,1.84 0.87,2.04 0.52,2.12 0.18,2.21 -0.17,2.18 -0.53,2.15 -0.86,2.01 -1.19,1.87 -1.46,1.63 -1.73,1.39 -1.90,1.07 -2.08,0.76 -2.15,0.41 -2.21,0.05 -2.17,-0.29 -2.12,-0.65 -1.96,-0.97 -1.80,-1.29 -1.54,-1.54 -1.29,-1.80 -0.97,-1.96 -0.65,-2.12 -0.29,-2.17 0.06,-2.21 0.41,-2.15 0.76,-2.08 1.07,-1.90 1.39,-1.73 1.63,-1.46 1.87,-1.19 2.01,-0.86 2.15,-0.53 2.18,-0.17 2.21,0.18 2.12,0.52 2.03,0.87 1.84,1.18 1.65,1.48 1.37,1.70 1.09,1.93 0.75,2.05 0.41,2.18 0.05,2.19 -0.30,2.20 -0.64,2.09 -0.98,1.98 -1.27,1.77 -1.57,1.56 -1.57,1.57 -1.57,1.57 -1.73,1.35 -1.90,1.14 -2.01,0.90 -2.12,0.66 -2.16,0.39 -2.21,0.13 -2.20,-0.13 -2.18,-0.40 -2.10,-0.65 -2.02,-0.91 -1.88,-1.14 -1.74,-1.36 -1.55,-1.55 -1.36,-1.74 -1.14,-1.88 -0.91,-2.02 -0.65,-2.10 -0.40,-2.18 -0.13,-2.20 0.13,-2.21 0.39,-2.16 0.66,-2.12 0.90,-2.01 1.14,-1.90 1.35,-1.73 1.57,-1.57 1.57,-1.57 L 1.57,-1.57 Z"></path></g><g transform="translate(735.2000232421874 339.00000340576173) rotate(0 0.00004999999998744897 0.00004999999998744897)" stroke="none"><path fill="#000000" d="M 1.57,-1.57 Q 1.57,-1.57 1.77,-1.27 1.98,-0.98 2.09,-0.64 2.20,-0.29 2.19,0.05 2.18,0.41 2.05,0.75 1.93,1.09 1.70,1.37 1.48,1.65 1.18,1.84 0.87,2.04 0.52,2.12 0.18,2.21 -0.17,2.18 -0.53,2.15 -0.86,2.01 -1.19,1.87 -1.46,1.63 -1.73,1.39 -1.90,1.07 -2.08,0.76 -2.15,0.41 -2.21,0.05 -2.17,-0.29 -2.12,-0.65 -1.96,-0.97 -1.80,-1.29 -1.54,-1.54 -1.29,-1.80 -0.97,-1.96 -0.65,-2.12 -0.29,-2.17 0.06,-2.21 0.41,-2.15 0.76,-2.08 1.07,-1.90 1.39,-1.73 1.63,-1.46 1.87,-1.19 2.01,-0.86 2.15,-0.53 2.18,-0.17 2.21,0.18 2.12,0.52 2.03,0.87 1.84,1.18 1.65,1.48 1.37,1.70 1.09,1.93 0.75,2.05 0.41,2.18 0.05,2.19 -0.30,2.20 -0.64,2.09 -0.98,1.98 -1.27,1.77 -1.57,1.56 -1.57,1.57 -1.57,1.57 -1.73,1.35 -1.90,1.14 -2.01,0.90 -2.12,0.66 -2.16,0.39 -2.21,0.13 -2.20,-0.13 -2.18,-0.40 -2.10,-0.65 -2.02,-0.91 -1.88,-1.14 -1.74,-1.36 -1.55,-1.55 -1.36,-1.74 -1.14,-1.88 -0.91,-2.02 -0.65,-2.10 -0.40,-2.18 -0.13,-2.20 0.13,-2.21 0.39,-2.16 0.66,-2.12 0.90,-2.01 1.14,-1.90 1.35,-1.73 1.57,-1.57 1.57,-1.57 L 1.57,-1.57 Z"></path></g><g transform="translate(729.5999866210936 362.19995457763673) rotate(0 0.00004999999998744897 0.00004999999998744897)" stroke="none"><path fill="#000000" d="M 1.57,-1.57 Q 1.57,-1.57 1.77,-1.27 1.98,-0.98 2.09,-0.64 2.20,-0.29 2.19,0.05 2.18,0.41 2.05,0.75 1.93,1.09 1.70,1.37 1.48,1.65 1.18,1.84 0.87,2.04 0.52,2.12 0.18,2.21 -0.17,2.18 -0.53,2.15 -0.86,2.01 -1.19,1.87 -1.46,1.63 -1.73,1.39 -1.90,1.07 -2.08,0.76 -2.15,0.41 -2.21,0.05 -2.17,-0.29 -2.12,-0.65 -1.96,-0.97 -1.80,-1.29 -1.54,-1.54 -1.29,-1.80 -0.97,-1.96 -0.65,-2.12 -0.29,-2.17 0.06,-2.21 0.41,-2.15 0.76,-2.08 1.07,-1.90 1.39,-1.73 1.63,-1.46 1.87,-1.19 2.01,-0.86 2.15,-0.53 2.18,-0.17 2.21,0.18 2.12,0.52 2.03,0.87 1.84,1.18 1.65,1.48 1.37,1.70 1.09,1.93 0.75,2.05 0.41,2.18 0.05,2.19 -0.30,2.20 -0.64,2.09 -0.98,1.98 -1.27,1.77 -1.57,1.56 -1.57,1.57 -1.57,1.57 -1.73,1.35 -1.90,1.14 -2.01,0.90 -2.12,0.66 -2.16,0.39 -2.21,0.13 -2.20,-0.13 -2.18,-0.40 -2.10,-0.65 -2.02,-0.91 -1.88,-1.14 -1.74,-1.36 -1.55,-1.55 -1.36,-1.74 -1.14,-1.88 -0.91,-2.02 -0.65,-2.10 -0.40,-2.18 -0.13,-2.20 0.13,-2.21 0.39,-2.16 0.66,-2.12 0.90,-2.01 1.14,-1.90 1.35,-1.73 1.57,-1.57 1.57,-1.57 L 1.57,-1.57 Z"></path></g><g transform="translate(724.0000110351561 351.80003697509767) rotate(0 0.00004999999998744897 0.00004999999998744897)" stroke="none"><path fill="#000000" d="M 1.57,-1.57 Q 1.57,-1.57 1.77,-1.27 1.98,-0.98 2.09,-0.64 2.20,-0.29 2.19,0.05 2.18,0.41 2.05,0.75 1.93,1.09 1.70,1.37 1.48,1.65 1.18,1.84 0.87,2.04 0.52,2.12 0.18,2.21 -0.17,2.18 -0.53,2.15 -0.86,2.01 -1.19,1.87 -1.46,1.63 -1.73,1.39 -1.90,1.07 -2.08,0.76 -2.15,0.41 -2.21,0.05 -2.17,-0.29 -2.12,-0.65 -1.96,-0.97 -1.80,-1.29 -1.54,-1.54 -1.29,-1.80 -0.97,-1.96 -0.65,-2.12 -0.29,-2.17 0.06,-2.21 0.41,-2.15 0.76,-2.08 1.07,-1.90 1.39,-1.73 1.63,-1.46 1.87,-1.19 2.01,-0.86 2.15,-0.53 2.18,-0.17 2.21,0.18 2.12,0.52 2.03,0.87 1.84,1.18 1.65,1.48 1.37,1.70 1.09,1.93 0.75,2.05 0.41,2.18 0.05,2.19 -0.30,2.20 -0.64,2.09 -0.98,1.98 -1.27,1.77 -1.57,1.56 -1.57,1.57 -1.57,1.57 -1.73,1.35 -1.90,1.14 -2.01,0.90 -2.12,0.66 -2.16,0.39 -2.21,0.13 -2.20,-0.13 -2.18,-0.40 -2.10,-0.65 -2.02,-0.91 -1.88,-1.14 -1.74,-1.36 -1.55,-1.55 -1.36,-1.74 -1.14,-1.88 -0.91,-2.02 -0.65,-2.10 -0.40,-2.18 -0.13,-2.20 0.13,-2.21 0.39,-2.16 0.66,-2.12 0.90,-2.01 1.14,-1.90 1.35,-1.73 1.57,-1.57 1.57,-1.57 L 1.57,-1.57 Z"></path></g><g stroke-opacity="0.8" fill-opacity="0.8" stroke-linecap="round" transform="translate(684.4000854492188 324.80006408691406) rotate(0 32.000030517578125 34)"><path d="M-1.2 0.68 C12.81 0.71, 26.91 2.39, 62.17 -1.84 M0.39 -0.68 C22.19 0.01, 44.28 -0.17, 63.06 -0.4 M62.72 0.1 C65.45 22.78, 64.7 41.15, 63.31 69.31 M64 -0.04 C64.54 22.13, 64.12 46.4, 63.84 67.31 M65.5 66.91 C42.31 67, 23.51 66.37, 0.33 67.2 M63.55 67.99 C43.72 68.13, 24.29 67.29, 0.39 68.25 M-0.74 66.55 C0.86 54.11, 0.21 39.26, -1.23 0.03 M-0.44 68.82 C-1.32 49.36, -1.49 30.88, -0.97 0.41" stroke="#000000" stroke-width="1" fill="none"></path></g><g stroke-opacity="0.8" fill-opacity="0.8" stroke-linecap="round" transform="translate(721.2000732421875 325.60008239746094) rotate(0 13.60003662109375 33.59999084472656)"><path d="M0 0 C0 0, 0 0, 0 0 M0 0 C0 0, 0 0, 0 0 M-0.55 6.24 C0.78 5.09, 2.42 4.05, 5.31 1.05 M-0.36 6.21 C0.71 4.77, 2.36 3.72, 5.11 0.18 M0.74 12.1 C2.63 8.47, 8.71 3.59, 9.85 -0.95 M0.12 11.84 C2.79 9.64, 5 5.47, 10.93 -0.63 M1.09 17.63 C2.06 12.11, 7.19 9.46, 17.16 1.32 M-0.15 17.72 C4.36 11.73, 9.43 6.77, 16.24 -0.31 M-1.7 24.02 C5.96 17.94, 12.02 13.58, 22.53 1.69 M-0.15 24.38 C4.93 17.74, 9.61 13.37, 21.88 -0.35 M1.42 29.65 C6.46 22.8, 16.03 12.77, 27.09 2.06 M0.53 30.74 C7.07 22.15, 12.98 15.21, 26.65 0.15 M0.02 36.61 C8.36 29.59, 12.63 19.75, 28.39 2.94 M0.17 37.72 C11.03 24.29, 19.91 11.99, 30.44 2.13 M0.23 41.09 C10.55 31.31, 18.14 21.47, 31.44 10.3 M1.09 43.42 C7.13 36.11, 13.3 28.06, 29.71 8.44 M0.67 47.79 C5.01 41.07, 14.67 32.2, 31.82 13.2 M-0.35 48.29 C5.9 40.82, 12.47 34.46, 30.74 14.12 M-1.09 52.77 C6.5 46.71, 14.69 36.66, 28.38 18.99 M0.99 54.81 C7.03 48.5, 12.23 40.18, 30.63 20.51 M0.09 61.57 C7.37 53.29, 15.78 41.42, 29.03 28.33 M-0.2 60.44 C9.85 49.7, 21.21 36.35, 29.15 27.08 M-0.62 68.11 C8.27 62.01, 11.73 50.87, 30.61 33.66 M-1.04 67.3 C9.91 56.01, 20.15 44.28, 30.9 32.64 M4.56 69.99 C9.57 59.16, 17.35 50.13, 30.84 37.52 M2.31 70.33 C12.44 57.76, 24.36 45.73, 29.37 38.59 M7.27 68.24 C14.15 62.88, 18.88 55.1, 30.76 43.43 M8.1 69.79 C16.32 61.63, 23.42 52.87, 29.61 44.49 M14.22 69.87 C17.79 61.4, 26.54 56.66, 31.33 50.05 M12.41 70.7 C19.96 63.17, 25.39 57.21, 29.06 51.11 M20.05 68.1 C23.47 66.61, 24.74 62.62, 28.28 57.9 M18.52 69.45 C21.65 66.49, 23.73 63.91, 30.02 57.94 M23.67 69.48 C26.25 68.16, 26.71 66.09, 30.13 63.64 M23.62 69.49 C26.24 67.35, 28.13 65.19, 30.16 63.04" stroke="#fab005" stroke-width="0.5" fill="none"></path><path d="M1.5 -1.09 C7.02 -0.78, 16.91 -1.41, 27.53 -0.8 M-0.45 -0.01 C8.41 -0.28, 17.67 -1.11, 27.59 0.25 M26.46 -1.45 C27.9 15.21, 27.25 29.46, 25.97 67.23 M26.76 0.82 C27.08 18.02, 26.9 36.2, 26.23 67.61 M27.02 68.66 C23.12 66.63, 16.56 65.05, 0.74 65.33 M27.16 67.8 C18.33 67.69, 9.8 67.15, 0.09 68.15 M0.57 66.39 C-2.54 42.28, -1.33 18.25, -1.22 -1.92 M0.19 66.32 C0.4 45.97, -0.22 25.09, -0.04 -0.88" stroke="#000000" stroke-width="1" fill="none"></path></g><g stroke-linecap="round"><g stroke-opacity="0.8" fill-opacity="0.8" transform="translate(687.60009765625 393.6000518798828) rotate(0 15.505213873833327 -16.199547725170873)"><path d="M-0.77 -0.46 C4.61 -5.59, 26.38 -26.84, 31.78 -31.93" stroke="#1864ab" stroke-width="1.5" fill="none" stroke-dasharray="8 9"></path></g></g><g stroke-linecap="round"><g stroke-opacity="0.8" fill-opacity="0.8" transform="translate(639.9268819579486 311.8561397619545) rotate(0 -0.5821534169344886 -43.35906020067631)"><path d="M-1 0.06 C-1.21 -14.57, -1.14 -72.62, -0.98 -86.77 M0.67 -0.96 C0.3 -15.56, -1.68 -71.52, -1.83 -85.82" stroke="#000000" stroke-width="1" fill="none"></path></g><g stroke-opacity="0.8" fill-opacity="0.8" transform="translate(639.9268819579486 311.8561397619545) rotate(0 -0.5821534169344886 -43.35906020067631)"><path d="M-2.56 -85.36 L3.5 -73.51 L-6.98 -72.66 L-0.97 -83.89" stroke="none" stroke-width="0" fill="#000000" fill-rule="evenodd"></path><path d="M-1.76 -85.6 C-0.98 -80.06, 3.54 -78.32, 5.24 -72.59 M-1.33 -85.35 C-0.62 -81.51, 2.39 -78.22, 4.39 -72.51 M5.6 -73.51 C1.25 -72.39, -3.44 -71.83, -9.03 -71.99 M4.81 -72.53 C1.94 -72.72, -0.32 -72.27, -7.59 -71.97 M-7.69 -71.31 C-4.46 -76.83, -2.41 -80.29, -2.91 -86.04 M-7.99 -72.48 C-6.73 -76.35, -4.73 -80.94, -2.26 -85.65 M-1.83 -85.82 C-1.83 -85.82, -1.83 -85.82, -1.83 -85.82 M-1.83 -85.82 C-1.83 -85.82, -1.83 -85.82, -1.83 -85.82" stroke="#000000" stroke-width="1" fill="none"></path></g></g></svg>